<svg width="130" height="149" viewBox="0 0 130 149" fill="none" xmlns="http://www.w3.org/2000/svg">
<path d="M61.5366 7.45931L35.9877 0.732789C35.9598 0.726662 35.9333 0.741979 35.9263 0.768744C35.9192 0.795671 35.9353 0.823161 35.9622 0.830175L41.9755 2.41327L6.93948 135.487C6.93238 135.514 6.94851 135.541 6.97543 135.549L26.4623 140.679C26.4664 140.68 26.4708 140.681 26.4751 140.681C26.4839 140.681 26.4928 140.679 26.5004 140.674C26.5121 140.667 26.5203 140.656 26.5238 140.644L29.0506 131.047C29.0576 131.02 29.0415 130.992 29.0146 130.985L16.7354 127.752L17.4005 125.225L29.6312 128.445L29.5863 128.616C29.5792 128.643 29.5953 128.67 29.6222 128.677C29.6499 128.685 29.6764 128.668 29.6836 128.641L29.7414 128.422C29.7414 128.421 29.7416 128.421 29.7418 128.42L31.2019 122.875C31.209 122.848 31.1929 122.82 31.166 122.813C31.1383 122.805 31.1118 122.822 31.1045 122.849L30.7479 124.204L16.4556 120.441L17.1208 117.914L30.7039 121.49C30.7207 121.494 30.7396 121.489 30.7526 121.476C30.7654 121.463 30.7701 121.445 30.765 121.427C30.3105 119.862 29.9344 118.273 29.6467 116.706C29.6432 116.687 29.6289 116.672 29.61 116.667L20.2992 114.216L20.9644 111.688L29.1429 113.841C29.1587 113.846 29.1761 113.842 29.1887 113.831C29.2012 113.82 29.2075 113.803 29.2055 113.787C29.043 112.442 28.9357 111.077 28.8868 109.729C28.886 109.707 28.8707 109.688 28.8493 109.682L19.9081 107.328L20.5734 104.801L28.8033 106.968C28.8176 106.972 28.8338 106.968 28.8463 106.959C28.8587 106.95 28.866 106.936 28.8664 106.92C28.8979 105.477 28.9957 104.013 29.1569 102.57C29.1598 102.546 29.1439 102.523 29.1197 102.516L23.7516 101.103L24.417 98.5755L29.4732 99.9069C29.4866 99.9109 29.5013 99.9081 29.5133 99.9007C29.5251 99.8928 29.5331 99.8806 29.5355 99.8665C29.7743 98.4537 30.0763 97.0439 30.4332 95.6763C30.44 95.6497 30.4241 95.6222 30.3972 95.6151L23.472 93.7918L24.1373 91.2643L31.1327 93.1064C31.1584 93.1127 31.1849 93.0982 31.1933 93.073C31.6313 91.7105 32.1342 90.3535 32.6884 89.0404C32.6942 89.0271 32.6935 89.0117 32.6873 88.9988C32.6809 88.9854 32.669 88.976 32.6549 88.9721L27.3155 87.5667L27.9808 85.0392L33.7704 86.5636C33.7944 86.5703 33.8179 86.5589 33.8284 86.5368C34.4024 85.366 35.0373 84.1963 35.7151 83.06C35.7231 83.0462 35.7243 83.0297 35.7184 83.0152C35.7125 83.0003 35.6999 82.9893 35.6846 82.9854L26.9245 80.679L27.5897 78.1515L37.1882 80.679C37.208 80.6849 37.2305 80.6763 37.2426 80.6586C38.1097 79.3821 39.0443 78.139 40.0199 76.9633C40.031 76.9499 40.0343 76.9323 40.0292 76.9158C40.0239 76.8992 40.0107 76.8867 39.994 76.8824L30.768 74.4538L31.4332 71.9263L41.9858 74.7048C42.0034 74.7103 42.0225 74.704 42.0351 74.6906C42.8324 73.8448 43.6709 73.0178 44.5269 72.2326C44.534 72.2259 44.5391 72.2177 44.5417 72.2082L45.1397 69.9368C45.1468 69.9099 45.1307 69.8824 45.1038 69.8754C45.0767 69.8689 45.0495 69.8844 45.0423 69.9113L44.7807 70.9054L30.4885 67.1426L31.1536 64.6152L45.4948 68.3911C45.5071 68.3938 45.5213 68.3924 45.5328 68.3857C45.5444 68.379 45.5526 68.3681 45.5562 68.3551L46.6471 64.2115C46.6505 64.1985 46.6485 64.185 46.6418 64.1734C46.6351 64.1618 46.6241 64.1536 46.6111 64.1501L34.3319 60.9173L34.9971 58.3899L47.2278 61.61L46.9805 62.5495C46.9734 62.5764 46.9896 62.6038 47.0165 62.6109C47.0448 62.6172 47.0709 62.6019 47.0779 62.575L49.0084 55.2422C49.0084 55.242 49.0084 55.2416 49.0086 55.2414L50.0986 51.1009C50.0988 51.1 50.0992 51.0993 50.0994 51.0985L50.1406 50.9415C50.1477 50.9146 50.1316 50.8872 50.1047 50.8801C50.0772 50.8733 50.0505 50.8894 50.0432 50.9161L50.0148 51.0243L37.7842 47.8043L38.4496 45.277L50.7288 48.51C50.7565 48.5162 50.783 48.5009 50.7903 48.4741L51.8815 44.3302C51.8848 44.3174 51.8828 44.3037 51.8761 44.2921C51.8695 44.2805 51.8585 44.2723 51.8455 44.2687L37.5045 40.4933L38.1699 37.9659L52.4622 41.7285L52.0841 43.1649C52.077 43.1918 52.0932 43.2192 52.12 43.2263C52.1478 43.2325 52.1743 43.2171 52.1814 43.1905L54.0395 36.1328C54.0466 36.1058 54.0305 36.0783 54.0036 36.0713C53.9759 36.0652 53.9494 36.0805 53.9421 36.1072L53.5788 37.4876L41.3481 34.2677L42.0134 31.7403L54.2929 34.9732C54.3048 34.9761 54.3194 34.9746 54.331 34.9679C54.3426 34.9612 54.3508 34.9503 54.3543 34.9373L61.5726 7.52058C61.5796 7.49389 61.5634 7.4664 61.5366 7.45931ZM48.8981 55.2653L48.2328 57.7925L33.9405 54.0298L34.6059 51.5024L48.8981 55.2653ZM49.0643 11.5316C49.538 9.73176 51.3864 8.65157 53.1879 9.12705C54.9876 9.60092 56.0663 11.4507 55.5926 13.2507C55.1188 15.0504 53.2683 16.1291 51.4689 15.6552C50.5971 15.4259 49.8667 14.8705 49.4125 14.0916C48.9584 13.3127 48.8347 12.4036 49.0643 11.5316ZM55.2492 31.1431L40.9569 27.3805L41.6221 24.8531L55.9144 28.6157L55.2492 31.1431Z" fill="#4587A6"/>
<path d="M42.0495 2.32875L35.9875 0.732678C35.9748 0.729373 35.9608 0.731227 35.9495 0.737918C35.9379 0.74461 35.9296 0.755653 35.9261 0.768552L0.877283 133.891C0.870189 133.918 0.886311 133.945 0.913238 133.953L6.97514 135.549C6.97925 135.55 6.98336 135.55 6.98772 135.55C6.99868 135.55 7.00973 135.546 7.01851 135.54C7.02779 135.533 7.03407 135.523 7.03665 135.513L42.0855 2.39026C42.0925 2.36334 42.0764 2.33584 42.0495 2.32875Z" fill="#58B2DC"/>
<path d="M53.2133 9.02954C51.3591 8.54067 49.4548 9.65264 48.9667 11.506C48.7305 12.4039 48.8577 13.3401 49.3255 14.1422C49.7933 14.9442 50.5453 15.5161 51.4431 15.7526C51.7387 15.8304 52.0354 15.8675 52.3274 15.8675C53.8679 15.8675 55.2796 14.834 55.6898 13.2761C56.1775 11.4225 55.0666 9.5176 53.2133 9.02954Z" fill="#58B2DC"/>
<path d="M55.9884 28.5314L41.5989 24.743C41.5862 24.7396 41.5726 24.7414 41.5608 24.7484C41.5492 24.755 41.541 24.7661 41.5374 24.779L40.8465 27.4035C40.8394 27.4304 40.8555 27.4578 40.8825 27.4649L55.2719 31.2533C55.276 31.2543 55.2804 31.2549 55.2847 31.2549C55.2935 31.2549 55.3021 31.2526 55.31 31.2481C55.3216 31.2414 55.3299 31.2304 55.3334 31.2175L56.0243 28.5929C56.0314 28.566 56.0153 28.5385 55.9884 28.5314Z" fill="white"/>
<path d="M52.5361 41.6446L38.1466 37.8563C38.1185 37.8498 38.0923 37.8657 38.0852 37.8922L37.394 40.5167C37.3907 40.5295 37.3927 40.5432 37.3994 40.5548C37.406 40.5664 37.417 40.5746 37.43 40.5782L51.8196 44.3665C51.824 44.3676 51.8283 44.368 51.8325 44.368C51.8548 44.368 51.875 44.3531 51.8812 44.3306L52.5721 41.706C52.5791 41.6792 52.563 41.6517 52.5361 41.6446Z" fill="white"/>
<path d="M54.318 34.8761L41.9901 31.6304C41.9627 31.6241 41.9359 31.6395 41.9285 31.6664L41.2375 34.2909C41.2342 34.3037 41.2361 34.3174 41.2427 34.329C41.2494 34.3406 41.2605 34.3489 41.2734 34.3523L53.6013 37.598C53.6056 37.599 53.6099 37.5995 53.614 37.5995C53.6364 37.5995 53.6567 37.5846 53.6627 37.5621L54.3539 34.9375C54.3572 34.9248 54.3552 34.911 54.3485 34.8995C54.3419 34.8879 54.331 34.8797 54.318 34.8761Z" fill="white"/>
<path d="M50.7542 48.4123L38.4264 45.1666C38.399 45.1603 38.3723 45.1758 38.365 45.2025L37.6739 47.827C37.6706 47.8398 37.6725 47.8535 37.6792 47.8651C37.6859 47.8767 37.6969 47.8849 37.7098 47.8885L50.0378 51.1341C50.0419 51.1352 50.0462 51.1357 50.0505 51.1357C50.0594 51.1357 50.0682 51.1334 50.0758 51.1289C50.0874 51.1222 50.0957 51.1112 50.0992 51.0983L50.7901 48.4737C50.7973 48.4469 50.7811 48.4194 50.7542 48.4123Z" fill="white"/>
<path d="M48.9722 55.1805L34.5828 51.3919C34.5545 51.3856 34.5284 51.4011 34.5213 51.4278L33.8303 54.0523C33.8269 54.065 33.8289 54.0788 33.8356 54.0903C33.8423 54.1019 33.8532 54.1102 33.8662 54.1137L48.2557 57.9023C48.26 57.9032 48.2643 57.9039 48.2684 57.9039C48.2908 57.9039 48.3111 57.889 48.3171 57.8663L49.0083 55.2418C49.0116 55.2291 49.0096 55.2153 49.0029 55.2038C48.9962 55.1922 48.9852 55.184 48.9722 55.1805Z" fill="white"/>
<path d="M45.5199 68.2939L31.1303 64.5053C31.1177 64.5022 31.1036 64.5037 31.0922 64.5107C31.0806 64.5174 31.0723 64.5283 31.0689 64.5413L30.378 67.1658C30.3709 67.1927 30.387 67.2202 30.4139 67.2273L44.8033 71.0159C44.8074 71.0169 44.8118 71.0175 44.8161 71.0175C44.8249 71.0175 44.8336 71.0152 44.8414 71.0106C44.853 71.004 44.8612 70.993 44.8648 70.98L45.5559 68.3555C45.5592 68.3427 45.5573 68.329 45.5506 68.3174C45.5439 68.3057 45.5329 68.2975 45.5199 68.2939Z" fill="white"/>
<path d="M47.3016 61.5256L34.9737 58.2799C34.9609 58.2766 34.9474 58.2785 34.9356 58.2852C34.924 58.2919 34.9158 58.3029 34.9122 58.3159L34.2213 60.9404C34.2142 60.9673 34.2304 60.9948 34.2573 61.0019L46.5852 64.2476C46.5895 64.2485 46.5938 64.2491 46.598 64.2491C46.6204 64.2491 46.6406 64.2342 46.6467 64.2116L47.3376 61.5871C47.3446 61.5602 47.3285 61.5327 47.3016 61.5256Z" fill="white"/>
<path d="M31.4097 71.8159C31.3967 71.813 31.3832 71.8143 31.3716 71.8212C31.36 71.8279 31.3518 71.8389 31.3482 71.8519L30.6573 74.4764C30.6502 74.5035 30.6663 74.531 30.6932 74.5381L39.9679 76.9796C39.972 76.9808 39.9763 76.9811 39.9807 76.9811C39.9954 76.9811 40.0097 76.9744 40.0193 76.963C40.6446 76.2097 41.3228 75.4453 42.0345 74.6904C42.0467 74.6774 42.0512 74.659 42.0463 74.6421C42.0414 74.6249 42.028 74.6119 42.0107 74.6071L31.4097 71.8159Z" fill="white"/>
<path d="M27.5664 78.0414C27.5537 78.0374 27.5397 78.0397 27.5284 78.0464C27.5167 78.0534 27.5085 78.0645 27.505 78.0771L26.8141 80.7016C26.8071 80.7287 26.8231 80.7562 26.85 80.7633L35.6589 83.0826C35.663 83.0838 35.6674 83.0842 35.6717 83.0842C35.6891 83.0842 35.7057 83.0751 35.7149 83.0598C36.2087 82.2311 36.7228 81.4231 37.2424 80.6584C37.2514 80.645 37.2536 80.6277 37.2479 80.6124C37.2423 80.5971 37.2294 80.5857 37.2136 80.5814L27.5664 78.0414Z" fill="white"/>
<path d="M23.3976 93.876L30.3716 95.7122C30.3757 95.7134 30.38 95.7137 30.3843 95.7137C30.3932 95.7137 30.402 95.7114 30.4096 95.707C30.4212 95.6999 30.4296 95.689 30.433 95.676C30.652 94.8374 30.9077 93.9615 31.1932 93.0726C31.1973 93.0596 31.196 93.0451 31.1894 93.0329C31.1829 93.0212 31.1715 93.0121 31.1581 93.0086L24.1142 91.1539C24.0859 91.1468 24.0598 91.1629 24.0527 91.1896L23.3617 93.8141C23.3583 93.8271 23.3602 93.8408 23.3669 93.8523C23.3736 93.8642 23.3847 93.8724 23.3976 93.876Z" fill="white"/>
<path d="M27.9576 84.9294C27.9301 84.9219 27.9034 84.9388 27.8962 84.9651L27.2051 87.5896C27.2018 87.6026 27.2037 87.6163 27.2104 87.6278C27.2171 87.6395 27.228 87.6477 27.241 87.6513L32.6291 89.0696C32.6335 89.0708 32.6376 89.0712 32.6419 89.0712C32.6618 89.0712 32.6802 89.0595 32.6883 89.0406C33.0475 88.189 33.431 87.3469 33.8282 86.537C33.8348 86.5236 33.835 86.508 33.8287 86.4942C33.8224 86.4804 33.8103 86.4702 33.7957 86.4663L27.9576 84.9294Z" fill="white"/>
<path d="M29.1564 102.571C29.2589 101.657 29.3862 100.747 29.5351 99.8667C29.5394 99.8412 29.5235 99.8164 29.4983 99.8098L24.3936 98.4657C24.3659 98.4587 24.3394 98.4752 24.3321 98.5014L23.641 101.126C23.6377 101.139 23.6397 101.153 23.6463 101.164C23.653 101.176 23.664 101.184 23.6769 101.188L29.0937 102.614C29.0978 102.615 29.1022 102.615 29.1065 102.615C29.1165 102.615 29.1264 102.612 29.1349 102.607C29.147 102.599 29.1548 102.585 29.1564 102.571Z" fill="white"/>
<path d="M19.8337 107.412L28.8235 109.779C28.8276 109.781 28.832 109.781 28.8363 109.781C28.8475 109.781 28.8587 109.777 28.8678 109.77C28.8802 109.76 28.8872 109.745 28.8866 109.729C28.8529 108.791 28.846 107.846 28.8663 106.92C28.8669 106.897 28.8513 106.876 28.8288 106.87L20.5503 104.691C20.5219 104.683 20.496 104.7 20.4889 104.726L19.7978 107.351C19.7945 107.364 19.7964 107.377 19.8031 107.389C19.8096 107.401 19.8206 107.409 19.8337 107.412Z" fill="white"/>
<path d="M30.7648 121.427C30.7599 121.411 30.7463 121.398 30.7292 121.393L17.0976 117.804C17.0847 117.8 17.0711 117.802 17.0596 117.809C17.048 117.816 17.0397 117.827 17.0362 117.84L16.3453 120.464C16.3382 120.491 16.3543 120.519 16.3813 120.526L30.7707 124.314C30.775 124.315 30.7793 124.316 30.7835 124.316C30.8058 124.316 30.8261 124.301 30.8322 124.278L31.2017 122.875C31.2041 122.865 31.2039 122.855 31.2009 122.846C31.0448 122.364 30.898 121.886 30.7648 121.427Z" fill="white"/>
<path d="M20.9028 111.583C20.8912 111.59 20.883 111.601 20.8795 111.613L20.1886 114.238C20.1815 114.265 20.1976 114.292 20.2245 114.3L29.584 116.763C29.5881 116.765 29.5925 116.765 29.5968 116.765C29.6094 116.765 29.6216 116.76 29.631 116.752C29.6436 116.74 29.6495 116.723 29.6463 116.706C29.4751 115.774 29.3266 114.792 29.205 113.786C29.2027 113.766 29.188 113.749 29.1679 113.743L20.941 111.577C20.9284 111.574 20.9143 111.576 20.9028 111.583Z" fill="white"/>
<path d="M29.7052 128.36L17.3772 125.114C17.3645 125.11 17.3505 125.112 17.3392 125.119C17.3276 125.126 17.3193 125.137 17.3158 125.15L16.6249 127.774C16.6178 127.801 16.6339 127.829 16.6609 127.836L28.9888 131.082C28.9929 131.083 28.9973 131.083 29.0015 131.083C29.0104 131.083 29.019 131.081 29.0268 131.077C29.0384 131.07 29.0467 131.059 29.0502 131.046L29.7411 128.422C29.7444 128.409 29.7425 128.395 29.7358 128.383C29.7291 128.372 29.7181 128.363 29.7052 128.36Z" fill="white"/>
<path d="M129.569 91.3089L120.042 76.3346C120.035 76.3236 120.023 76.3154 120.01 76.3126C119.997 76.3102 119.984 76.3122 119.972 76.3193L116.137 78.7593L30.6454 133.152C30.634 133.159 30.6262 133.171 30.6232 133.184C30.6203 133.197 30.6228 133.21 30.6299 133.222L40.1571 148.196C40.1668 148.211 40.1831 148.219 40.1996 148.219C40.2087 148.219 40.2183 148.217 40.2265 148.211L129.554 91.3783C129.565 91.3713 129.573 91.3598 129.576 91.3469C129.579 91.334 129.576 91.3203 129.569 91.3089ZM39.0781 140.454L37.2577 137.593L72.373 115.252L74.1935 118.113L39.0781 140.454ZM83.2357 117.195C80.5172 118.923 76.8997 118.12 75.1702 115.401C74.3325 114.085 74.0575 112.521 74.3964 110.997C74.735 109.474 75.6466 108.174 76.9632 107.336C77.9123 106.732 78.9899 106.421 80.0883 106.421C80.5137 106.421 80.9422 106.468 81.3674 106.562C82.8908 106.901 84.1911 107.812 85.0287 109.129C86.7578 111.847 85.9537 115.465 83.2357 117.195ZM88.0764 109.28L86.2559 106.419L121.371 84.0775L123.192 86.9384L88.0764 109.28Z" fill="#4587A5"/>
<path d="M81.3895 106.465C79.8392 106.121 78.2485 106.4 76.9097 107.252C75.5703 108.104 74.6429 109.426 74.2985 110.976C73.954 112.526 74.2335 114.117 75.0856 115.456C76.2172 117.234 78.143 118.207 80.1092 118.207C81.2 118.207 82.3035 117.908 83.2898 117.28C86.0547 115.521 86.8729 111.841 85.1138 109.076C84.2618 107.736 82.9391 106.809 81.3895 106.465Z" fill="white"/>
<path d="M55.0917 71.0865C55.0765 71.0628 55.0449 71.0559 55.0224 71.071L53.4111 72.0961C53.3996 72.1032 53.3918 72.1146 53.3889 72.1276C53.386 72.1408 53.3885 72.1543 53.3956 72.1655L58.7433 80.5711C58.7529 80.586 58.7692 80.5942 58.7857 80.5942C58.7949 80.5942 58.8043 80.5919 58.8126 80.5864L60.424 79.5613C60.4354 79.5542 60.4433 79.5428 60.4462 79.5298C60.4491 79.5168 60.4466 79.5031 60.4395 79.4917L55.0917 71.0865Z" fill="white"/>
<path d="M48.0961 76.6573C48.077 76.6377 48.0452 76.6373 48.025 76.6562L46.6584 77.9901C46.6489 77.9995 46.6434 78.0121 46.6432 78.0254C46.643 78.0388 46.6481 78.0517 46.6575 78.0611L53.6158 85.1905C53.6257 85.2007 53.6387 85.2058 53.6518 85.2058C53.6644 85.2058 53.6771 85.2011 53.6869 85.1916L55.0538 83.8577C55.0633 83.8483 55.0687 83.8357 55.069 83.8223C55.0692 83.8089 55.0641 83.796 55.0546 83.7866L48.0961 76.6573Z" fill="white"/>
<path d="M41.819 84.0236C41.8078 84.0158 41.7942 84.0138 41.781 84.0165C41.768 84.0193 41.7567 84.0272 41.7494 84.0381L40.7048 85.6371C40.6895 85.6603 40.6961 85.6913 40.7194 85.7067L49.0592 91.1561C49.0674 91.1615 49.0771 91.1643 49.0867 91.1643C49.0903 91.1643 49.0936 91.1639 49.0971 91.1631C49.1101 91.1603 49.1214 91.1524 49.1287 91.1415L50.1733 89.5425C50.1886 89.5194 50.1819 89.4883 50.1588 89.4729L41.819 84.0236Z" fill="white"/>
<path d="M46.4108 96.1113L37.1717 92.385C37.1593 92.3804 37.1456 92.3804 37.1333 92.3855C37.1208 92.3905 37.1112 92.4008 37.1063 92.4129L36.3921 94.184C36.3817 94.2099 36.394 94.239 36.4197 94.2496L45.6587 97.9763C45.6647 97.9786 45.671 97.9798 45.6775 97.9798C45.6842 97.9798 45.6908 97.9786 45.6971 97.9759C45.7095 97.9708 45.7191 97.9606 45.724 97.9484L46.4384 96.177C46.4435 96.1644 46.4433 96.1507 46.4383 96.1385C46.433 96.1262 46.4232 96.1164 46.4108 96.1113Z" fill="white"/>
<path d="M34.2307 103.685L44.1236 104.859C44.1256 104.859 44.1275 104.859 44.1295 104.859C44.1547 104.859 44.1764 104.84 44.1794 104.815L44.4045 102.918C44.406 102.905 44.4023 102.892 44.3941 102.881C44.3859 102.871 44.3739 102.864 44.3605 102.863L34.4676 101.689C34.4403 101.685 34.4151 101.705 34.4118 101.733L34.1867 103.629C34.1851 103.643 34.1889 103.656 34.1971 103.666C34.2054 103.677 34.2173 103.683 34.2307 103.685Z" fill="white"/>
<path d="M43.4606 111.546C43.4697 111.536 43.4744 111.523 43.4738 111.509L43.3915 109.601C43.3901 109.574 43.3642 109.55 43.3391 109.553L33.3861 109.982C33.3583 109.983 33.3367 110.006 33.3379 110.034L33.42 111.942C33.4207 111.955 33.4265 111.968 33.4364 111.977C33.4456 111.986 33.4577 111.99 33.4703 111.99H33.4725L43.4257 111.562C43.439 111.561 43.4515 111.556 43.4606 111.546Z" fill="white"/>
<path d="M43.9495 115.884C43.9379 115.878 43.9242 115.877 43.9112 115.881L34.4517 119.005C34.4252 119.015 34.411 119.043 34.4197 119.069L35.0187 120.883C35.0228 120.895 35.0319 120.906 35.0439 120.912C35.051 120.915 35.0586 120.917 35.0665 120.917C35.0718 120.917 35.0771 120.916 35.0822 120.915L44.5416 117.79C44.5682 117.781 44.5823 117.753 44.5736 117.727L43.9747 115.913C43.9705 115.901 43.9615 115.89 43.9495 115.884Z" fill="white"/>
<path d="M62.8361 67.6977L61.0486 68.3706C61.036 68.3752 61.026 68.3849 61.0205 68.3968C61.015 68.409 61.0146 68.423 61.0191 68.4354L64.5288 77.7592C64.5364 77.7791 64.5557 77.7918 64.5759 77.7918C64.5818 77.7918 64.5877 77.7907 64.5936 77.7887L66.3811 77.1158C66.3937 77.1111 66.4037 77.1017 66.4092 77.0895C66.4147 77.0774 66.4153 77.0636 66.4105 77.0511L62.9008 67.7273C62.8911 67.701 62.8622 67.6879 62.8361 67.6977Z" fill="white"/>
<path d="M72.3226 65.5546C72.3119 65.5468 72.2994 65.543 72.2852 65.5452L70.3944 65.814C70.3812 65.8158 70.3693 65.8229 70.3612 65.8335C70.3534 65.8443 70.3498 65.8576 70.3518 65.8708L71.7542 75.7337C71.7578 75.7588 71.7791 75.7769 71.8039 75.7769C71.8063 75.7769 71.8086 75.7769 71.811 75.7765L73.7018 75.5078C73.7149 75.5059 73.7269 75.4988 73.735 75.4882C73.7428 75.4776 73.7464 75.4642 73.7444 75.4509L72.342 65.5878C72.3402 65.5746 72.3331 65.5627 72.3226 65.5546Z" fill="white"/>
<path d="M79.4023 75.2047L81.3094 75.308H81.3121C81.3387 75.308 81.3608 75.2872 81.3624 75.2604L81.9013 65.3125C81.9019 65.2991 81.8973 65.2862 81.8886 65.2761C81.8795 65.2663 81.8671 65.2602 81.8537 65.2594L79.9468 65.1562C79.9152 65.1553 79.8954 65.1761 79.8938 65.2036L79.3547 75.1516C79.3541 75.1649 79.3586 75.1779 79.3675 75.1877C79.3767 75.198 79.389 75.2039 79.4023 75.2047Z" fill="white"/>
<path d="M91.3443 67.2633L89.531 66.6635C89.5182 66.6588 89.5045 66.66 89.4926 66.6663C89.4807 66.6723 89.4717 66.6828 89.4675 66.6955L86.3392 76.154C86.3306 76.1803 86.3447 76.2086 86.3712 76.2176L88.1843 76.8174C88.1894 76.819 88.1947 76.8198 88.2 76.8198C88.2078 76.8198 88.2155 76.8178 88.2226 76.8143C88.2346 76.8084 88.2436 76.7978 88.2477 76.7852L91.3762 67.3267C91.3849 67.3005 91.3708 67.272 91.3443 67.2633Z" fill="white"/>
<path d="M99.1991 70.0919L97.5057 69.209C97.4939 69.2027 97.4801 69.2016 97.4674 69.2057C97.4546 69.2096 97.444 69.2185 97.4379 69.2304L92.8326 78.0642C92.8198 78.089 92.8293 78.1192 92.854 78.1322L94.5475 79.0147C94.5547 79.0186 94.5626 79.0206 94.5706 79.0206C94.5757 79.0206 94.5808 79.0198 94.5858 79.0182C94.5986 79.0143 94.6091 79.0053 94.6153 78.9935L99.2206 70.1597C99.2333 70.135 99.2239 70.1046 99.1991 70.0919Z" fill="white"/>
<path d="M106.62 75.3273L105.231 74.0166C105.211 73.9977 105.179 73.9981 105.16 74.0186L98.3218 81.263C98.3027 81.2835 98.3035 81.3152 98.3237 81.3341L99.7126 82.6452C99.722 82.6542 99.7345 82.659 99.7471 82.659C99.7611 82.6621 99.7744 82.6535 99.7836 82.6433L106.622 75.3985C106.631 75.3887 106.636 75.3757 106.636 75.3623C106.636 75.3489 106.63 75.3363 106.62 75.3273Z" fill="white"/>
<path d="M99.0004 89.7299C99.0165 89.7491 99.0446 89.7531 99.0658 89.7402L116.192 78.8441C116.204 78.8366 116.212 78.8244 116.214 78.8107C116.217 78.7969 116.213 78.7828 116.205 78.7715C108.888 68.9968 98.2219 62.3853 86.1721 60.1553C74.0597 57.9136 61.6615 60.3227 51.2619 66.9394C48.8511 68.4733 46.5621 70.2291 44.4586 72.1583C43.6006 72.9453 42.7606 73.774 41.9617 74.6214C41.2484 75.3779 40.5689 76.1442 39.9422 76.8988C38.9644 78.0771 38.028 79.323 37.159 80.6019C36.6383 81.3686 36.1234 82.1781 35.6283 83.008C34.9492 84.1471 34.3131 85.3191 33.7377 86.4927C33.3398 87.3038 32.9555 88.1479 32.5955 89.001C32.0401 90.3172 31.5362 91.6765 31.0972 93.0423C30.8113 93.9327 30.555 94.8106 30.3354 95.6512C29.978 97.0212 29.6754 98.434 29.4362 99.85C29.287 100.732 29.1593 101.644 29.0568 102.559C28.8951 104.005 28.7972 105.472 28.7655 106.918C28.7453 107.846 28.7521 108.794 28.7859 109.733C28.8347 111.083 28.9424 112.451 29.1054 113.799C29.2271 114.807 29.376 115.791 29.5475 116.725C29.8358 118.295 30.2128 119.886 30.6681 121.456C30.8016 121.916 30.9487 122.394 31.105 122.877C31.9886 125.603 33.1182 128.261 34.4631 130.778C34.4698 130.791 34.4811 130.8 34.4947 130.803C34.4988 130.805 34.5032 130.805 34.5075 130.805C34.5169 130.805 34.5263 130.802 34.5344 130.797L51.6599 119.901C51.6813 119.888 51.6891 119.861 51.6786 119.838C45.7175 107.034 50.2214 91.6536 62.1549 84.0612C74.0887 76.4689 89.9287 78.9058 99.0004 89.7299ZM34.5055 101.795L44.2986 102.956L44.0853 104.753L34.2922 103.591L34.5055 101.795ZM33.5185 111.888L33.4407 110.08L43.2932 109.656L43.3711 111.464L33.5185 111.888ZM35.0984 120.803L34.5309 119.085L43.8949 115.993L44.4624 117.711L35.0984 120.803ZM45.6496 97.8636L36.5039 94.1746L37.1807 92.4971L46.3266 96.1857L45.6496 97.8636ZM49.0723 91.0446L40.8165 85.6501L41.8061 84.1351L50.0619 89.5296L49.0723 91.0446ZM53.6527 85.0846L46.7647 78.0271L48.0595 76.7635L54.9477 83.821L53.6527 85.0846ZM58.801 80.4745L53.5071 72.1541L55.0336 71.1827L60.3275 79.5036L58.801 80.4745ZM64.6053 77.6764L61.1312 68.4466L62.8246 67.8094L66.2988 77.0389L64.6053 77.6764ZM71.8464 75.6693L70.4581 65.906L72.2496 65.6515L73.6379 75.4148L71.8464 75.6693ZM81.2649 75.2042L79.458 75.1064L79.9918 65.2589L81.7984 65.3569L81.2649 75.2042ZM106.515 75.366L99.7452 82.5378L98.4295 81.2958L105.199 74.1244L106.515 75.366ZM88.1679 76.7062L86.4503 76.1382L89.5471 66.775L91.2649 67.3433L88.1679 76.7062ZM92.9449 78.066L97.5039 69.3212L99.1082 70.1578L94.5491 78.9023L92.9449 78.066Z" fill="#58B2DC"/>
<path d="M72.4314 115.156C72.4162 115.132 72.3849 115.125 72.3621 115.14L37.162 137.536C37.1385 137.551 37.1316 137.582 37.1465 137.605L39.0206 140.551C39.0276 140.562 39.0391 140.57 39.052 140.573C39.0557 140.574 39.0593 140.574 39.063 140.574C39.0724 140.574 39.0819 140.571 39.0899 140.566L74.2901 118.171C74.3015 118.164 74.3094 118.152 74.3123 118.139C74.3152 118.126 74.3127 118.113 74.3056 118.101L72.4314 115.156Z" fill="white"/>
<path d="M123.304 86.9267L121.43 83.9808C121.423 83.9698 121.411 83.9616 121.398 83.9588C121.385 83.9565 121.372 83.9584 121.36 83.9655L86.1601 106.361C86.1487 106.368 86.1409 106.379 86.1379 106.392C86.135 106.405 86.1375 106.419 86.1446 106.431L88.019 109.376C88.0286 109.391 88.0448 109.4 88.0614 109.4C88.0706 109.4 88.08 109.397 88.0882 109.392L123.288 86.9962C123.312 86.9813 123.319 86.9502 123.304 86.9267Z" fill="white"/>
</svg>
