<svg width="145" height="135" viewBox="0 0 145 135" fill="none" xmlns="http://www.w3.org/2000/svg">
<path d="M48.3656 93.4957C48.3656 93.4957 59.6766 81.1095 56.5333 46.7845C51.9631 -3.03713 98.2457 -2.83611 114.499 7.86477C130.742 18.5656 146.527 59.2344 94.7995 71.9881C59.1599 80.7736 50.4851 94.8968 50.4851 94.8968L48.3656 93.4957Z" fill="white" stroke="#7CC5E3" stroke-width="3.89778" stroke-miterlimit="10" stroke-linecap="round" stroke-linejoin="round"/>
<path d="M127.933 50.3135L129.86 48.0228C130.365 46.5006 130.723 44.962 130.962 43.4152L126.207 49.0764L119.065 43.9561L123.961 38.1312L131.003 43.1778C131.1 42.4739 131.171 41.7782 131.222 41.0743L125.143 36.7159L130.039 30.8911L130.36 31.1205C130.129 30.1299 129.861 29.1393 129.552 28.1814L129.497 28.2469L122.354 23.1266L125.48 19.4042C125.086 18.7655 124.687 18.1514 124.271 17.5454L120.628 21.8813L113.485 16.761L118.405 10.9035C117.861 10.4284 117.303 9.98601 116.749 9.5764L111.751 15.524L104.608 10.4037L108.729 5.50326C108.016 5.25725 107.287 5.02761 106.532 4.81432L102.882 9.15841L95.7393 4.03811L96.4987 3.13002C94.7795 3.03071 93.0359 3.02143 91.2771 3.10218L92.8218 4.20816L87.9254 10.033L80.793 4.9209C79.4078 5.35385 78.0494 5.8523 76.7223 6.44899L72.97 10.9158L71.1846 9.63777C70.663 10.014 70.1403 10.382 69.6412 10.7909L71.7881 12.3311L66.8917 18.156L64.3741 16.3536C64.0129 16.8445 63.6822 17.36 63.3526 17.8836L65.7098 19.5713L60.8133 25.3961L59.9501 24.7735C59.7381 25.3627 59.5599 26.001 59.3704 26.623L59.6213 26.8032L59.1279 27.3923C58.7265 28.8081 58.3995 30.3058 58.1357 31.869L61.3467 28.0403L68.4892 33.1606L63.5928 38.9855L57.7147 34.7745C57.6439 35.4702 57.6048 36.1987 57.5554 36.919L62.4098 40.3926L57.6001 46.1193C57.6346 46.6513 57.6488 47.167 57.7026 47.7073C57.752 48.2148 57.7676 48.6732 57.8068 49.1725L58.0649 48.8616L65.2074 53.9819L58.1802 62.3429C58.1498 63.3415 58.1295 64.3482 58.0743 65.2977L58.3252 65.4779L66.943 55.2272L74.0855 60.3475L65.4677 70.5982L67.1932 71.8353L75.811 61.5845L82.9535 66.7048L74.3357 76.9556L76.0611 78.1927L84.679 67.9419L91.8215 73.0622L90.8109 74.2648C92.1845 73.881 93.6035 73.4972 95.0701 73.1297L94.739 72.8922L99.6354 67.0673L104.29 70.4017C105 70.1484 105.672 69.8787 106.345 69.6172L100.818 65.6602L105.715 59.8353L112.857 64.9556L110.429 67.8435C112.4 66.9034 114.228 65.9142 115.885 64.8593L115.774 64.7774L120.67 58.9526L122.125 59.993C122.575 59.5595 123.035 59.1259 123.447 58.676L121.861 57.5372L126.758 51.7124L127.911 52.5398C128.209 51.9834 128.48 51.427 128.733 50.8706L127.933 50.3135ZM117.33 42.719L110.188 37.5987L115.084 31.7739L122.227 36.8942L117.33 42.719ZM99.5852 30.0043L92.4427 24.884L97.3391 19.0591L104.482 24.1794L99.5852 30.0043ZM106.207 25.4165L113.35 30.5368L108.453 36.3616L101.311 31.2413L106.207 25.4165ZM98.4022 31.4114L93.5057 37.2363L86.3632 32.116L91.2597 26.2911L98.4022 31.4114ZM92.3238 38.6516L87.4274 44.4764L80.2849 39.3561L85.1813 33.5313L92.3238 38.6516ZM84.6287 30.8789L77.4862 25.7586L82.3826 19.9337L89.5251 25.054L84.6287 30.8789ZM83.4468 32.2942L78.5504 38.119L71.4078 32.9987L76.3043 27.1739L83.4468 32.2942ZM79.0939 40.7714L86.2364 45.8917L81.34 51.7166L74.1975 46.5963L79.0939 40.7714ZM87.971 47.1288L95.1135 52.2491L90.217 58.0739L83.0745 52.9536L87.971 47.1288ZM89.1529 45.7135L94.0493 39.8886L101.192 45.0089L96.2954 50.8338L89.1529 45.7135ZM95.2323 38.4815L100.129 32.6567L107.271 37.777L102.375 43.6018L95.2323 38.4815ZM109.006 39.014L116.148 44.1343L111.252 49.9592L104.109 44.8389L109.006 39.014ZM121.162 24.5337L128.305 29.654L123.409 35.4789L116.266 30.3586L121.162 24.5337ZM112.285 18.1763L119.428 23.2966L114.531 29.1215L107.389 24.0012L112.285 18.1763ZM103.417 11.819L110.56 16.9393L105.663 22.7641L98.521 17.6438L103.417 11.819ZM94.5404 5.46159L101.683 10.5819L96.7865 16.4067L89.6439 11.2864L94.5404 5.46159ZM88.461 12.6936L95.6035 17.8139L90.707 23.6387L83.5645 18.5184L88.461 12.6936ZM79.5839 6.3362L86.7264 11.4565L81.83 17.2813L74.6875 12.161L79.5839 6.3362ZM73.5056 13.5764L80.6481 18.6967L75.7517 24.5215L68.6091 19.4012L73.5056 13.5764ZM62.5308 26.6414L67.4272 20.8165L74.5697 25.9368L69.6733 31.7617L62.5308 26.6414ZM70.2158 34.4059L77.3583 39.5262L72.4619 45.351L65.3193 40.2307L70.2158 34.4059ZM66.3926 52.5912L59.2501 47.4709L64.1465 41.646L71.289 46.7663L66.3926 52.5912ZM75.2606 58.9485L68.118 53.8282L73.0145 48.0034L80.157 53.1237L75.2606 58.9485ZM84.1376 65.3059L76.9951 60.1856L81.8915 54.3608L89.034 59.4811L84.1376 65.3059ZM93.0157 71.6715L85.8732 66.5512L90.7697 60.7263L97.9122 65.8466L93.0157 71.6715ZM99.0941 64.4313L91.9516 59.311L96.848 53.4862L103.991 58.6065L99.0941 64.4313ZM105.172 57.1911L98.0299 52.0708L102.926 46.246L110.069 51.3663L105.172 57.1911ZM114.049 63.5485L106.907 58.4282L111.803 52.6034L118.946 57.7237L114.049 63.5485ZM120.129 56.3165L112.986 51.1962L117.883 45.3714L125.025 50.4917L120.129 56.3165Z" fill="#030D20"/>
<path d="M56.6984 49.4756C56.6984 49.4756 55.1473 61.9526 67.2974 69.9541C79.4565 77.9556 94.8022 72.0001 94.8022 72.0001" stroke="#7CC5E3" stroke-width="3.89778" stroke-miterlimit="10" stroke-linecap="round" stroke-linejoin="round"/>
<path d="M51.4093 94.7622L48.7472 93.0044C46.2054 91.326 42.8419 91.6993 41.2346 93.8382L19.7521 122.426C18.1448 124.565 18.9024 127.66 21.4442 129.338L24.1063 131.096C26.6481 132.775 30.0116 132.401 31.6189 130.262L53.1014 101.674C54.7087 99.5352 53.9511 96.4406 51.4093 94.7622Z" fill="#030D20"/>
<path d="M51.4093 94.7622L48.7472 93.0044C46.2054 91.326 42.8419 91.6993 41.2346 93.8382L19.7521 122.426C18.1448 124.565 18.9024 127.66 21.4442 129.338L24.1063 131.096C26.6481 132.775 30.0116 132.401 31.6189 130.262L53.1014 101.674C54.7087 99.5352 53.9511 96.4406 51.4093 94.7622Z" stroke="#030D20"/>
<path opacity="0.35" d="M19.3367 127.699L46.5711 91.5681L44.1832 89.9946L16.8264 126.298L28.6756 134.1L28.8071 133.928L19.3367 127.699Z" fill="#7CC5E3"/>
<g opacity="0.61">
<path d="M131.865 41.3728C132.83 31.7158 128.53 18.2905 119.674 9.91208C126.61 18.2565 129.914 29.7824 129.048 38.3428C128.714 41.6327 127.824 45.2414 125.975 48.866C125.968 48.8823 125.962 48.9069 125.955 48.9232C124.29 52.1632 121.856 55.419 118.359 58.4695L116.95 60.1546C115.768 61.0869 114.473 61.9945 113.046 62.8693L112.696 62.6236C112.134 62.9669 111.562 63.3103 110.963 63.6455L111.304 63.8912C108.972 65.191 106.341 66.417 103.368 67.5363L103.086 67.3315C102.413 67.593 101.713 67.8545 101.002 68.0995L101.263 68.2879C100.134 68.6719 98.9579 69.0394 97.7341 69.3905L97.9683 69.1042C96.8001 69.4636 95.5753 69.8065 94.3221 70.1413L94.1417 70.354C94.1247 70.3621 94.1065 70.3621 94.0804 70.3703C93.342 70.5499 92.6421 70.7459 91.923 70.9336L91.8326 70.8681C91.2848 71.0478 90.5166 71.2765 89.5771 71.5132L89.6076 71.5378C89.319 71.6194 89.0486 71.7011 88.76 71.7827C88.291 71.8725 87.7846 71.954 87.2589 72.0273C87.1613 72.0436 87.0828 72.0681 86.9852 72.0844C82.5528 73.3501 78.6122 74.698 75.1106 76.0707L74.7269 76.5288C63.8084 80.9495 57.1418 85.6103 53.3193 89.0043C53.4398 88.7507 53.5581 88.4807 53.6855 88.2107C51.4298 90.1489 50.176 91.6377 49.6446 92.3494L53.0865 94.6187C55.9146 91.3222 65.6312 82.031 89.8125 75.1227C92.965 74.5355 95.1043 73.7675 95.5794 73.5878C123.585 66.641 130.771 52.2411 131.865 41.3728Z" fill="#7CC5E3"/>
</g>
</svg>
