<svg width="118" height="113" viewBox="0 0 118 113" fill="none" xmlns="http://www.w3.org/2000/svg">
<path d="M97.884 112.974H19.8013C10.1526 112.974 2.2648 105.281 2.02497 95.6382L0.104619 18.4493C-0.144001 8.46145 7.88749 0.229858 17.881 0.229858H99.8055C109.8 0.229858 117.831 8.46086 117.582 18.4493L115.662 95.6382C115.421 105.281 107.533 112.974 97.884 112.974Z" fill="white"/>
<path d="M94.5821 108.206H23.1031C14.2707 108.206 7.04952 101.164 6.83022 92.3365L5.07228 21.6762C4.84477 12.5331 12.1967 4.99792 21.3452 4.99792H96.3406C105.489 4.99792 112.841 12.5331 112.614 21.6762L110.856 92.3365C110.636 101.164 103.415 108.206 94.5821 108.206Z" fill="#81C7EE"/>
<path d="M83.8235 32.4831H33.8613C32.2488 32.4831 30.9294 31.1641 30.9294 29.552V12.1363C30.9294 10.5242 32.2488 9.2052 33.8613 9.2052H83.8235C85.436 9.2052 86.7553 10.5242 86.7553 12.1363V29.552C86.7553 31.1641 85.436 32.4831 83.8235 32.4831Z" fill="#58B2DC"/>
<path d="M81.3126 29.6781H36.3726C34.7601 29.6781 33.4408 28.3591 33.4408 26.7471V15.2057C33.4408 13.5936 34.7601 12.2747 36.3726 12.2747H81.3126C82.9251 12.2747 84.2444 13.5936 84.2444 15.2057V26.7471C84.2444 28.3591 82.9251 29.6781 81.3126 29.6781Z" fill="white"/>
<path d="M93.4817 11.299V37.3907C93.4817 37.7764 93.1662 38.0918 92.7804 38.0918H24.9052C24.5194 38.0918 24.2039 37.7764 24.2039 37.3907V11.299C17.1458 12.2574 11.7571 18.3956 11.9394 25.7162L13.4728 87.3517C13.6645 95.0516 19.9633 101.194 27.6676 101.194H90.0174C97.7217 101.194 104.02 95.0516 104.212 87.3517L105.746 25.7162C105.929 18.3956 100.54 12.2574 93.4817 11.299Z" fill="#E8FFF9"/>
<path d="M57.3501 23.3347H58.7333C58.7333 24.1407 58.7879 24.7193 58.8958 25.0693C59.0042 25.4198 59.2171 25.5945 59.5349 25.5945C59.8117 25.5945 60.0058 25.4527 60.1166 25.1678C60.2274 24.8829 60.2831 24.3271 60.2831 23.5006C60.2831 22.3364 60.2309 21.5655 60.1277 21.1874C60.0239 20.8093 59.8211 20.6205 59.5179 20.6205C59.0083 20.6205 58.7404 21.0332 58.7158 21.8598C58.2578 21.5327 57.8755 21.341 57.5688 21.2853L57.7576 15.2532H61.4852V17.6948H60.1846V16.6437H58.8793L58.7896 19.9851C59.1731 19.5823 59.5771 19.3807 60.0011 19.3807C60.5869 19.3807 61.0342 19.6844 61.345 20.2917C61.6558 20.899 61.8106 21.7847 61.8106 22.949C61.8106 24.2392 61.6124 25.2088 61.2172 25.8589C60.8214 26.509 60.2603 26.8338 59.5349 26.8338C58.8495 26.8338 58.3141 26.529 57.9283 25.9193C57.5424 25.3102 57.3501 24.4479 57.3501 23.3347Z" fill="#7483FF"/>
<path d="M67.6255 20.9304C67.6255 23.0977 67.439 24.623 67.0661 25.507C66.6932 26.3916 66.1209 26.8336 65.3498 26.8336C64.5887 26.8336 64.0187 26.3951 63.6411 25.5187C63.2629 24.6417 63.0741 23.1123 63.0741 20.9304C63.0741 19.0053 63.25 17.5462 63.603 16.5538C63.956 15.5607 64.5383 15.0642 65.3498 15.0642C66.1109 15.0642 66.6803 15.5127 67.0585 16.4101C67.4361 17.3071 67.6255 18.8142 67.6255 20.9304ZM64.601 23.1604C64.601 23.9869 64.6602 24.5989 64.7787 24.997C64.8971 25.395 65.0871 25.5938 65.3498 25.5938C65.6219 25.5938 65.8136 25.4038 65.9244 25.0234C66.0347 24.6429 66.0904 24.0215 66.0904 23.1604V18.6852C66.0904 17.8188 66.03 17.2051 65.9092 16.8445C65.7884 16.4846 65.6014 16.304 65.3498 16.304C64.8502 16.304 64.601 17.0626 64.601 18.5791V23.1604Z" fill="#7483FF"/>
<path d="M68.6987 26.6453V24.7706H70.2567V26.6453H68.6987Z" fill="#7483FF"/>
<path d="M75.8671 20.9304C75.8671 23.0977 75.6806 24.623 75.3077 25.507C74.9348 26.3916 74.3625 26.8336 73.5914 26.8336C72.8303 26.8336 72.2603 26.3951 71.8827 25.5187C71.5045 24.6417 71.3157 23.1123 71.3157 20.9304C71.3157 19.0053 71.4916 17.5462 71.8446 16.5538C72.1976 15.5607 72.7798 15.0642 73.5914 15.0642C74.3525 15.0642 74.9219 15.5127 75.3001 16.4101C75.6777 17.3071 75.8671 18.8142 75.8671 20.9304ZM72.8426 23.1604C72.8426 23.9869 72.9018 24.5989 73.0203 24.997C73.1387 25.395 73.3287 25.5938 73.5914 25.5938C73.8635 25.5938 74.0552 25.4038 74.166 25.0234C74.2763 24.6429 74.332 24.0215 74.332 23.1604V18.6852C74.332 17.8188 74.2716 17.2051 74.1508 16.8445C74.03 16.4846 73.8429 16.304 73.5914 16.304C73.0918 16.304 72.8426 17.0626 72.8426 18.5791V23.1604Z" fill="#7483FF"/>
<path d="M77.4526 26.4401V25.7935H77.7576V21.4872H77.4526V20.8406H78.4559V24.3778H78.4712L79.0435 23.159H78.7163V22.5347H79.9875V23.1813H79.6756L79.1379 24.2822L79.7278 25.7935H80.0174V26.4401H79.2581L78.4718 24.4147H78.4565V25.7935H78.7837V26.4401H77.4526Z" fill="#7483FF"/>
<path d="M82.8343 22.5348V23.1814H82.5071V26.2578C82.5071 26.7385 82.391 27.1096 82.16 27.371C81.9283 27.6319 81.6029 27.7632 81.1842 27.7632C80.867 27.7632 80.5809 27.6823 80.3258 27.5211L80.6606 27.0345C80.8365 27.136 81.0013 27.187 81.1549 27.187C81.5865 27.187 81.8017 26.9279 81.8017 26.4102V26.0274H81.7864C81.6926 26.174 81.6023 26.2789 81.5173 26.3434C81.4317 26.4085 81.3261 26.4401 81.1995 26.4401C80.6172 26.4401 80.3258 25.7777 80.3258 24.4523C80.3258 23.7412 80.395 23.2365 80.534 22.9381C80.6729 22.6397 80.8893 22.4902 81.1842 22.4902C81.3953 22.4902 81.6006 22.6016 81.8011 22.8244V22.5348H82.8343ZM81.8081 24.9089V24.5003C81.8081 23.9405 81.7841 23.5671 81.7354 23.3801C81.6873 23.1931 81.5842 23.0993 81.4252 23.0993C81.2716 23.0993 81.1725 23.2019 81.1274 23.4077C81.0828 23.6128 81.0605 23.954 81.0605 24.4294C81.0605 24.957 81.0875 25.3158 81.142 25.5069C81.1966 25.6974 81.2904 25.793 81.4247 25.793C81.6809 25.7935 81.8081 25.4987 81.8081 24.9089Z" fill="#7483FF"/>
</svg>
