<svg width="121" height="124" viewBox="0 0 121 124" fill="none" xmlns="http://www.w3.org/2000/svg">
<path d="M60.3195 121.34C92.6215 121.34 118.745 94.6333 118.745 61.7663C118.745 28.8994 92.6215 2.19293 60.3195 2.19293C28.0176 2.19293 1.89361 28.8994 1.89361 61.7663C1.89361 94.6333 28.0176 121.34 60.3195 121.34Z" fill="#58B2DC" stroke="white" stroke-width="3.63318"/>
<path d="M62.4629 114.394C91.8675 114.394 115.705 90.4966 115.705 61.0175C115.705 31.5383 91.8675 7.64075 62.4629 7.64075C33.0583 7.64075 9.22119 31.5383 9.22119 61.0175C9.22119 90.4966 33.0583 114.394 62.4629 114.394Z" fill="#E8FFF9"/>
<path d="M63.6078 13.7533C63.6078 14.9791 62.6556 15.9725 61.4808 15.9725C60.3059 15.9725 59.3538 14.9791 59.3538 13.7533C59.3538 12.5275 60.3059 11.5341 61.4808 11.5341C62.6556 11.5346 63.6078 12.5281 63.6078 13.7533Z" fill="#FFE600"/>
<path d="M63.6078 108.444C63.6078 109.67 62.6556 110.664 61.4808 110.664C60.3059 110.664 59.3538 109.67 59.3538 108.444C59.3538 107.219 60.3059 106.225 61.4808 106.225C62.6556 106.225 63.6078 107.219 63.6078 108.444Z" fill="#FFE600"/>
<path d="M106.859 63.3181C105.684 63.3181 104.732 62.3247 104.732 61.0989C104.732 59.8731 105.684 58.8796 106.859 58.8796C108.034 58.8796 108.986 59.8731 108.986 61.0989C108.986 62.3247 108.034 63.3181 106.859 63.3181Z" fill="#FFE600"/>
<path d="M16.1031 63.3184C17.2778 63.3184 18.2301 62.3248 18.2301 61.0991C18.2301 59.8735 17.2778 58.8799 16.1031 58.8799C14.9284 58.8799 13.9761 59.8735 13.9761 61.0991C13.9761 62.3248 14.9284 63.3184 16.1031 63.3184Z" fill="#FFE600"/>
<path d="M89.4143 23.7215C88.7365 24.7223 87.409 24.9597 86.4497 24.2525C85.4905 23.5447 85.2629 22.1602 85.9408 21.1594C86.6192 20.1586 87.9461 19.9211 88.9054 20.6284C89.8646 21.3362 90.0927 22.7207 89.4143 23.7215Z" fill="#FFE600"/>
<path d="M37.0206 101.038C36.3422 102.039 35.0153 102.277 34.0561 101.569C33.0968 100.862 32.8693 99.4771 33.5471 98.4763C34.2255 97.4755 35.5525 97.238 36.5117 97.9453C37.4709 98.6531 37.6985 100.038 37.0206 101.038Z" fill="#FFE600"/>
<path d="M97.3057 90.2439C96.3465 89.5361 96.1189 88.1516 96.7968 87.1508C97.4752 86.15 98.8021 85.9126 99.7613 86.6198C100.721 87.3276 100.948 88.7121 100.27 89.7129C99.5919 90.7137 98.2649 90.9512 97.3057 90.2439Z" fill="#FFE600"/>
<path d="M23.2012 35.5782C22.242 34.8703 22.0144 33.4859 22.6923 32.4851C23.3707 31.4843 24.6976 31.2468 25.6568 31.9541C26.6161 32.6619 26.8436 34.0464 26.1658 35.0472C25.4874 36.048 24.1604 36.286 23.2012 35.5782Z" fill="#FFE600"/>
<path d="M102.077 39.8259C101.053 40.4267 99.7563 40.0475 99.1806 38.9793C98.6048 37.911 98.9682 36.5583 99.9921 35.9576C101.016 35.3569 102.313 35.736 102.889 36.8042C103.464 37.8725 103.101 39.2252 102.077 39.8259Z" fill="#FFE600"/>
<path d="M22.9703 86.2393C21.9464 86.84 20.6499 86.4609 20.0741 85.3926C19.4984 84.3244 19.8618 82.9716 20.8856 82.3709C21.9095 81.7702 23.206 82.1493 23.7818 83.2176C24.3575 84.2858 23.9941 85.6386 22.9703 86.2393Z" fill="#FFE600"/>
<path d="M81.8696 103.453C81.2938 102.385 81.6572 101.032 82.681 100.432C83.7049 99.831 85.0014 100.21 85.5772 101.278C86.1529 102.347 85.7895 103.699 84.7657 104.3C83.7418 104.901 82.4453 104.522 81.8696 103.453Z" fill="#FFE600"/>
<path d="M37.3852 20.9185C36.8094 19.8502 37.1728 18.4975 38.1967 17.8968C39.2205 17.2961 40.5176 17.6752 41.0933 18.7434C41.6691 19.8117 41.3057 21.165 40.2819 21.7657C39.2575 22.3659 37.9609 21.9867 37.3852 20.9185Z" fill="#FFE600"/>
<path opacity="0.5" d="M61.4809 19.0293L60.3196 61.8494L87.1843 27.4779C72.5945 17.2941 61.4809 19.0293 61.4809 19.0293Z" fill="url(#paint0_linear_25_8559)"/>
<path opacity="0.4" d="M18.4841 94.5618C22.0326 99.3437 26.298 103.349 31.0529 106.509L113.7 60.2679C113.808 54.3877 112.971 48.4639 111.116 42.7339L18.4841 94.5618Z" fill="#D8ECFF"/>
<path opacity="0.4" d="M90.3781 16.6637C73.5471 4.89989 50.4117 4.27481 31.759 16.9419C13.1063 29.6096 4.28866 51.9351 7.78499 72.7544L90.3781 16.6637Z" fill="#D8ECFF"/>
<path d="M60.3195 61.7663L57.8264 25.7264L61.4808 19.0295L64.6648 26.3169L60.3195 61.7663Z" fill="#030D20"/>
<path d="M60.3196 61.8492L75.4026 38.2944L80.7533 35.9851L79.3623 42.0942L60.3196 61.8492Z" fill="#030D20"/>
<path d="M60.3194 66.4783C62.8137 66.4783 64.8358 64.3686 64.8358 61.7661C64.8358 59.1637 62.8137 57.054 60.3194 57.054C57.825 57.054 55.803 59.1637 55.803 61.7661C55.803 64.3686 57.825 66.4783 60.3194 66.4783Z" fill="#030D20"/>
<path d="M60.3194 64.3135C61.6678 64.3135 62.7609 63.173 62.7609 61.7661C62.7609 60.3592 61.6678 59.2188 60.3194 59.2188C58.971 59.2188 57.8779 60.3592 57.8779 61.7661C57.8779 63.173 58.971 64.3135 60.3194 64.3135Z" fill="#030D20"/>
<defs>
<linearGradient id="paint0_linear_25_8559" x1="73.752" y1="18.9172" x2="73.752" y2="61.8494" gradientUnits="userSpaceOnUse">
<stop stop-color="white"/>
<stop offset="1" stop-color="#18CAF1"/>
</linearGradient>
</defs>
</svg>
