<svg width="40" height="42" viewBox="0 0 40 42" fill="none" xmlns="http://www.w3.org/2000/svg">
<g clip-path="url(#clip0_44_1245)">
<path d="M0.000618498 23.9377L0.0986691 9.18055C0.116418 6.50923 1.98395 4.22078 4.56343 3.70949L18.8132 0.884979C22.2376 0.206227 25.4152 2.88559 25.3917 6.43185L25.2936 21.1889C25.2759 23.8602 23.4084 26.1487 20.8289 26.6601L6.57905 29.4845C3.15471 30.1632 -0.0229436 27.4839 0.000618498 23.9377Z" fill="#CBEFFF" fill-opacity="0.2"/>
<path d="M6.98182 29.8225L7.07986 15.0653C7.09762 12.394 8.96514 10.1056 11.5446 9.59429L25.7945 6.76977C29.2188 6.09103 32.3965 8.77039 32.3728 12.3166L32.2748 27.0738C32.2571 29.7451 30.3895 32.0336 27.8101 32.5448L13.5602 35.3694C10.1359 36.0481 6.95826 33.3687 6.98182 29.8225Z" fill="#80ACD4" fill-opacity="0.5"/>
<path d="M13.9633 35.7123L14.0614 20.9552C14.0791 18.2838 15.9466 15.9954 18.5261 15.484L32.7759 12.6596C36.2002 11.9808 39.378 14.6602 39.3544 18.2064L39.2564 32.9635C39.2385 35.6348 37.371 37.9233 34.7916 38.4347L20.5418 41.2591C17.1174 41.9379 13.9398 39.2585 13.9633 35.7123Z" fill="#CADCFF" fill-opacity="0.8"/>
</g>
<defs>
<clipPath id="clip0_44_1245">
<rect width="39.3546" height="40.5844" fill="white" transform="translate(0 0.779327)"/>
</clipPath>
</defs>
</svg>
