<svg width="19" height="20" viewBox="0 0 19 20" fill="none" xmlns="http://www.w3.org/2000/svg">
<path d="M9.50008 3.97656C5.54175 3.97656 2.16133 6.43865 0.791748 9.91406C2.16133 13.3895 5.54175 15.8516 9.50008 15.8516C13.4584 15.8516 16.8388 13.3895 18.2084 9.91406C16.8388 6.43865 13.4584 3.97656 9.50008 3.97656ZM9.50008 13.8724C7.31508 13.8724 5.54175 12.0991 5.54175 9.91406C5.54175 7.72906 7.31508 5.95573 9.50008 5.95573C11.6851 5.95573 13.4584 7.72906 13.4584 9.91406C13.4584 12.0991 11.6851 13.8724 9.50008 13.8724ZM9.50008 7.53906C8.18591 7.53906 7.12508 8.5999 7.12508 9.91406C7.12508 11.2282 8.18591 12.2891 9.50008 12.2891C10.8142 12.2891 11.8751 11.2282 11.8751 9.91406C11.8751 8.5999 10.8142 7.53906 9.50008 7.53906Z" fill="#3F51B5"/>
</svg>
