<svg width="37" height="39" viewBox="0 0 37 39" fill="none" xmlns="http://www.w3.org/2000/svg">
<g clip-path="url(#clip0_2_221)">
<path d="M0.000854523 22.1875L0.0927946 8.35004C0.109438 5.8452 1.86058 3.69937 4.27932 3.21994L17.6411 0.571451C20.852 -0.0650015 23.8316 2.44739 23.8096 5.77264L23.7176 19.61C23.7009 22.1149 21.9498 24.2607 19.5311 24.7402L6.16932 27.3886C2.95838 28.0251 -0.0212392 25.5127 0.000854523 22.1875Z" fill="#022E40" fill-opacity="0.2"/>
<path d="M6.54651 27.7056L6.63844 13.8681C6.65509 11.3633 8.40623 9.21744 10.825 8.73801L24.1868 6.08952C27.3977 5.45307 30.3773 7.96545 30.3552 11.2907L30.2633 25.1282C30.2467 27.633 28.4954 29.7789 26.0767 30.2583L12.715 32.9068C9.50403 33.5432 6.52441 31.0308 6.54651 27.7056Z" fill="#002343" fill-opacity="0.5"/>
<path d="M13.0931 33.2283L13.1852 19.3909C13.2018 16.8859 14.9529 14.7402 17.3716 14.2607L30.7333 11.6122C33.9443 10.9758 36.924 13.4882 36.9019 16.8134L36.81 30.6508C36.7932 33.1557 35.0421 35.3015 32.6234 35.781L19.2617 38.4294C16.0507 39.0659 13.0711 36.5535 13.0931 33.2283Z" fill="#030D20" fill-opacity="0.8"/>
</g>
<defs>
<clipPath id="clip0_2_221">
<rect width="36.902" height="38.0552" fill="white" transform="translate(0 0.472412)"/>
</clipPath>
</defs>
</svg>
