<svg width="154" height="154" viewBox="0 0 154 154" fill="none" xmlns="http://www.w3.org/2000/svg">
<circle cx="76.662" cy="77.2464" r="76.3987" fill="#F2FBFF"/>
<mask id="mask0_118_382" style="mask-type:alpha" maskUnits="userSpaceOnUse" x="0" y="0" width="154" height="154">
<circle cx="76.662" cy="77.2464" r="76.3987" fill="#D9D9D9"/>
</mask>
<g mask="url(#mask0_118_382)">
<mask id="mask1_118_382" style="mask-type:luminance" maskUnits="userSpaceOnUse" x="4" y="12" width="144" height="144">
<path d="M93.2753 153.644C131.676 144.276 155.211 105.552 145.844 67.1514C136.476 28.7509 97.7517 5.2153 59.3512 14.5832C20.9507 23.9511 -2.58489 62.675 6.78301 101.076C16.1509 139.476 54.8748 163.012 93.2753 153.644Z" fill="white"/>
</mask>
<g mask="url(#mask1_118_382)">
<path d="M98.0979 225.431C125.698 213.539 138.432 181.525 126.54 153.925C114.649 126.326 82.6344 113.592 55.0347 125.483C27.4349 137.375 14.7009 169.389 26.5925 196.989C38.4841 224.588 70.4981 237.322 98.0979 225.431Z" fill="#E89084"/>
<path d="M102.033 126.365C97.7694 136.207 87.9724 143.095 76.5634 143.095C65.1544 143.095 55.3575 136.207 51.0935 126.365C33.8795 135.503 22.1505 153.603 22.1505 174.45C22.1505 204.502 46.5125 228.864 76.5645 228.864C106.616 228.864 130.977 204.502 130.977 174.45C130.977 153.603 119.248 135.502 102.033 126.365Z" fill="url(#paint0_linear_118_382)"/>
<path d="M89.7414 107.518H62.7544V126.259H89.7414V107.518Z" fill="#E89084"/>
<path d="M62.7544 119.046C66.9934 120.475 71.5274 121.261 76.2474 121.261C80.9684 121.261 85.5024 120.475 89.7404 119.046V107.518H62.7534L62.7544 119.046Z" fill="#D5867C"/>
</g>
<mask id="mask2_118_382" style="mask-type:luminance" maskUnits="userSpaceOnUse" x="4" y="12" width="144" height="144">
<path d="M93.2753 153.644C131.676 144.276 155.211 105.552 145.844 67.1514C136.476 28.7509 97.7517 5.2153 59.3512 14.5832C20.9507 23.9511 -2.58489 62.675 6.78301 101.076C16.1509 139.476 54.8748 163.012 93.2753 153.644Z" fill="white"/>
</mask>
<g mask="url(#mask2_118_382)">
<path d="M45.3623 77.6823C46.1247 71.5052 41.7353 65.8797 35.5583 65.1173C29.3813 64.3549 23.7558 68.7443 22.9934 74.9213C22.231 81.0984 26.6204 86.7239 32.7974 87.4863C38.9744 88.2487 44.5999 83.8593 45.3623 77.6823Z" fill="#C0E4F9"/>
<path d="M45.3623 77.6823C46.1247 71.5052 41.7353 65.8797 35.5583 65.1173C29.3813 64.3549 23.7558 68.7443 22.9934 74.9213C22.231 81.0984 26.6204 86.7239 32.7974 87.4863C38.9744 88.2487 44.5999 83.8593 45.3623 77.6823Z" fill="#D5867C"/>
<path d="M121.591 87.2855C127.65 85.8628 131.408 79.7979 129.986 73.7391C128.563 67.6803 122.498 63.9221 116.439 65.3448C110.38 66.7675 106.622 72.8325 108.045 78.8913C109.468 84.95 115.533 88.7083 121.591 87.2855Z" fill="#C0E4F9"/>
<path d="M121.591 87.2855C127.65 85.8628 131.408 79.7979 129.986 73.7391C128.563 67.6803 122.498 63.9221 116.439 65.3448C110.38 66.7675 106.622 72.8325 108.045 78.8913C109.468 84.95 115.533 88.7083 121.591 87.2855Z" fill="#D5867C"/>
<path d="M76.2474 115.013C99.5699 115.013 118.476 96.106 118.476 72.7836C118.476 49.4611 99.5699 30.5546 76.2474 30.5546C52.925 30.5546 34.0184 49.4611 34.0184 72.7836C34.0184 96.106 52.925 115.013 76.2474 115.013Z" fill="#E89084"/>
<path d="M42.0974 73.7616V55.7616H111.095V73.7616H118.442C118.449 73.4346 118.477 73.1126 118.477 72.7846C118.477 49.4616 99.5704 30.5546 76.2474 30.5546C52.9244 30.5546 34.0184 49.4616 34.0184 72.7846C34.0184 73.1136 34.0444 73.4346 34.0524 73.7616H42.0974Z" fill="#030D20"/>
<path d="M44.8875 79.0306C44.8875 81.3766 46.7895 83.2786 49.1355 83.2786C51.4815 83.2786 53.3835 81.3766 53.3835 79.0306C53.3835 76.6846 51.4815 74.7826 49.1355 74.7826C46.7895 74.7826 44.8875 76.6846 44.8875 79.0306Z" fill="#030D20"/>
<path d="M99.1115 79.0306C99.1115 81.3766 101.013 83.2786 103.359 83.2786C105.705 83.2786 107.607 81.3766 107.607 79.0306C107.607 76.6846 105.705 74.7826 103.359 74.7826C101.013 74.7826 99.1115 76.6846 99.1115 79.0306Z" fill="#030D20"/>
<path d="M63.3825 79.2806C63.3825 79.3226 63.3795 79.3636 63.3795 79.4056C63.3795 86.5126 69.1405 92.2746 76.2485 92.2746C83.3555 92.2746 89.1174 86.5126 89.1174 79.4056C89.1174 79.3636 89.1145 79.3226 89.1145 79.2806H63.3825Z" fill="white"/>
</g>
</g>
<defs>
<linearGradient id="paint0_linear_118_382" x1="76.5639" y1="126.365" x2="76.5639" y2="228.864" gradientUnits="userSpaceOnUse">
<stop stop-color="#63C4B9"/>
<stop offset="1" stop-color="#3A8284"/>
</linearGradient>
</defs>
</svg>
