<svg width="153" height="154" viewBox="0 0 153 154" fill="none" xmlns="http://www.w3.org/2000/svg">
<circle cx="76.5366" cy="76.973" r="76.3987" fill="#F2FBFF"/>
<mask id="mask0_118_190" style="mask-type:alpha" maskUnits="userSpaceOnUse" x="0" y="0" width="153" height="154">
<circle cx="76.5366" cy="76.973" r="76.3987" fill="#D9D9D9"/>
</mask>
<g mask="url(#mask0_118_190)">
<mask id="mask1_118_190" style="mask-type:luminance" maskUnits="userSpaceOnUse" x="4" y="12" width="145" height="144">
<path d="M76.5365 155.372C116.064 155.372 148.107 123.329 148.107 83.8017C148.107 44.2747 116.064 12.2317 76.5365 12.2317C37.0095 12.2317 4.96655 44.2747 4.96655 83.8017C4.96655 123.329 37.0095 155.372 76.5365 155.372Z" fill="white"/>
</mask>
<g mask="url(#mask1_118_190)">
<path d="M31.9743 103.964C41.8093 101.747 47.9848 91.9768 45.7678 82.1419C43.5508 72.3069 33.7807 66.1314 23.9458 68.3484C14.1108 70.5654 7.93531 80.3355 10.1523 90.1704C12.3694 100.005 22.1394 106.181 31.9743 103.964Z" fill="#030D20"/>
<path d="M50.855 131.878C60.7232 129.813 67.0491 120.14 64.9843 110.271C62.9195 100.403 53.2459 94.0773 43.3777 96.1421C33.5095 98.2069 27.1835 107.881 29.2483 117.749C31.3131 127.617 40.9867 133.943 50.855 131.878Z" fill="#030D20"/>
<path d="M138.032 99.0705C145.161 91.9415 145.161 80.3832 138.032 73.2542C130.903 66.1253 119.345 66.1253 112.216 73.2542C105.087 80.3832 105.087 91.9415 112.216 99.0705C119.345 106.199 130.903 106.199 138.032 99.0705Z" fill="#030D20"/>
<path d="M118.874 126.904C126.003 119.775 126.003 108.216 118.874 101.087C111.745 93.9585 100.187 93.9585 93.0576 101.087C85.9287 108.216 85.9287 119.775 93.0576 126.904C100.187 134.033 111.745 134.033 118.874 126.904Z" fill="#030D20"/>
<path d="M90.2806 106.593H63.2936V125.334H90.2806V106.593Z" fill="#FFB199"/>
<path d="M90.2806 106.593H63.2936V125.334H90.2806V106.593Z" fill="#E88F84"/>
<path d="M63.2935 118.121C67.5325 119.55 72.0665 120.336 76.7865 120.336C81.5075 120.336 86.0415 119.55 90.2795 118.121V106.593H63.2925V118.121H63.2935Z" fill="#B2534E"/>
<path d="M123.358 203.225C138.877 177.492 130.596 144.05 104.862 128.531C79.1288 113.012 45.6871 121.293 30.1682 147.027C14.6494 172.76 22.93 206.202 48.6636 221.721C74.3971 237.239 107.839 228.959 123.358 203.225Z" fill="#E88F84"/>
<path d="M102.151 125.51C97.8865 135.352 88.0895 142.24 76.6805 142.24C65.2715 142.24 55.4745 135.352 51.2105 125.51C33.9955 134.647 22.2665 152.748 22.2665 173.595C22.2665 203.647 46.6285 228.009 76.6805 228.009C106.733 228.009 131.095 203.647 131.095 173.595C131.094 152.748 119.365 134.647 102.151 125.51Z" fill="url(#paint0_linear_118_190)"/>
</g>
<mask id="mask2_118_190" style="mask-type:luminance" maskUnits="userSpaceOnUse" x="4" y="12" width="145" height="144">
<path d="M76.5365 155.372C116.064 155.372 148.107 123.329 148.107 83.8017C148.107 44.2747 116.064 12.2317 76.5365 12.2317C37.0095 12.2317 4.96655 44.2747 4.96655 83.8017C4.96655 123.329 37.0095 155.372 76.5365 155.372Z" fill="white"/>
</mask>
<g mask="url(#mask2_118_190)">
<path d="M115.956 87.6175C124.656 65.9784 114.167 41.3844 92.5281 32.6851C70.8896 23.9858 46.2957 34.4756 37.5963 56.1147C28.8968 77.7537 39.386 102.348 61.0246 111.047C82.6631 119.746 107.257 109.257 115.956 87.6175Z" fill="#E88F84"/>
<mask id="mask3_118_190" style="mask-type:luminance" maskUnits="userSpaceOnUse" x="30" y="25" width="94" height="94">
<path d="M109.472 104.549C127.525 86.4957 127.525 57.2257 109.472 39.1726C91.4185 21.1194 62.1485 21.1194 44.0954 39.1726C26.0422 57.2257 26.0422 86.4957 44.0954 104.549C62.1485 122.602 91.4185 122.602 109.472 104.549Z" fill="white"/>
</mask>
<g mask="url(#mask3_118_190)">
<path d="M125.382 70.0319C148.208 65.7854 163.269 43.839 159.023 21.0133C154.776 -1.81236 132.83 -16.8737 110.004 -12.6271C87.1786 -8.38052 72.1172 13.5659 76.3638 36.3915C80.6104 59.2172 102.557 74.2785 125.382 70.0319Z" fill="#030D20"/>
<path d="M35.3536 70.7277C58.5717 70.7277 77.3936 51.9058 77.3936 28.6877C77.3936 5.46966 58.5717 -13.3523 35.3536 -13.3523C12.1356 -13.3523 -6.6864 5.46966 -6.6864 28.6877C-6.6864 51.9058 12.1356 70.7277 35.3536 70.7277Z" fill="#030D20"/>
</g>
<path d="M45.4266 78.1066C45.4266 80.4526 47.3286 82.3546 49.6746 82.3546C52.0206 82.3546 53.9226 80.4526 53.9226 78.1066C53.9226 75.7606 52.0206 73.8586 49.6746 73.8586C47.3286 73.8586 45.4266 75.7606 45.4266 78.1066Z" fill="#030D20"/>
<path d="M99.6506 78.1066C99.6506 80.4526 101.553 82.3546 103.899 82.3546C106.245 82.3546 108.147 80.4526 108.147 78.1066C108.147 75.7606 106.245 73.8586 103.899 73.8586C101.553 73.8586 99.6506 75.7606 99.6506 78.1066Z" fill="#030D20"/>
<path d="M63.9216 78.3567C63.9216 78.3987 63.9186 78.4397 63.9186 78.4817C63.9186 85.5887 69.6806 91.3507 76.7876 91.3507C83.8946 91.3507 89.6566 85.5887 89.6566 78.4817C89.6566 78.4397 89.6536 78.3987 89.6536 78.3567H63.9216Z" fill="white"/>
</g>
</g>
<defs>
<linearGradient id="paint0_linear_118_190" x1="76.6805" y1="125.51" x2="76.6805" y2="228.009" gradientUnits="userSpaceOnUse">
<stop stop-color="#FFADAD"/>
<stop offset="1" stop-color="#B23CEA"/>
</linearGradient>
</defs>
</svg>
