<svg width="83" height="82" viewBox="0 0 83 82" fill="none" xmlns="http://www.w3.org/2000/svg">
<path d="M71.9983 21.4848L71.9164 21.1722L71.713 20.9212L61.1373 7.8642L60.9172 7.59253L60.5997 7.44614L60.5787 7.43644L59.4805 6.93006L58.7527 7.89585L58.7383 7.91499L58.5411 8.17662L58.471 8.49661C58.1379 10.016 57.3616 13.015 55.9775 15.7556C54.5561 18.5701 52.7113 20.6862 50.4392 21.1665C50.4386 21.1666 50.438 21.1667 50.4374 21.1669L50.4079 21.173C50.4072 21.1732 50.4065 21.1733 50.4059 21.1734C48.8726 21.4873 47.2544 21.1918 45.4065 20.4575C43.8468 19.8378 42.2576 18.9647 40.5097 18.0044C40.1561 17.8101 39.796 17.6123 39.4284 17.4123L39.4283 17.4123C35.187 15.105 30.1112 12.5943 24.14 13.8561C24.14 13.8561 24.14 13.8561 24.1399 13.8561L24.1302 13.8581L24.1301 13.8582L24.4015 15.143L24.1289 13.8584C17.2095 15.3268 12.5077 20.8426 9.74287 27.0828C6.97354 33.3333 6.00087 40.6087 6.73105 46.1719L6.74437 46.2734L6.77137 46.3722L6.77627 46.3901L6.8044 46.4931L6.84683 46.591C9.1202 51.838 13.0887 55.5145 17.4504 56.9644L17.9854 57.1422L18.505 56.9237L18.524 56.9157L19.2977 56.5904L19.4252 55.7607L19.4299 55.7299L19.4625 55.5174L19.4342 55.3042C18.1901 45.9614 23.2968 38.6009 29.9788 37.1896L29.9789 37.1896C30.7023 37.0368 31.4489 36.9511 32.2145 36.9385L32.2145 36.9385C34.2033 36.9057 36.1573 37.4558 38.16 38.3466L38.6389 38.5596L39.1462 38.428L39.1654 38.4231L39.656 38.2958L39.9689 37.897C41.6599 35.7416 43.7292 33.8518 46.5093 32.4851C47.5529 31.9721 48.6046 31.6184 49.6547 31.3965C55.6716 30.125 61.8294 33.1586 65.884 35.9178L66.4813 36.3242L67.1714 36.1106L67.1972 36.1026L67.8283 35.9073L68.1102 35.3098C71.0681 29.042 72.0428 22.1374 72.0372 22.1695L72.0935 21.8474L72.0105 21.5311L71.9983 21.4848Z" fill="#58B2DC" stroke="white" stroke-width="3"/>
<path d="M70.9589 37.9349C70.9579 37.934 69.3443 36.3779 66.7376 34.6042C62.6107 31.7961 55.9917 28.4411 49.3278 29.849C48.1567 30.0964 46.9844 30.4909 45.824 31.0614C42.7984 32.5487 40.5568 34.6045 38.7531 36.9036C34.0214 42.9368 32.3071 50.6374 27.3876 54.177C26.2176 55.0193 24.9473 55.5692 23.6299 55.8476C21.771 56.2403 19.8185 56.0923 17.9226 55.4622C14.0306 54.1687 10.3789 50.8409 8.26507 45.9668C6.88827 35.4659 11.9618 18.0506 24.4569 15.404L24.4666 15.4019C29.8359 14.2675 34.4551 16.4921 38.7055 18.8041C42.9555 21.1157 46.8374 23.5173 50.7256 22.7206L50.7635 22.7127C56.7443 21.4471 59.2926 12.0012 59.9829 8.85732L59.9714 8.80743L58.6519 7.17831C58.6519 7.17831 58.6369 7.15784 58.6279 7.23766C58.5675 7.81 58.1644 9.60479 58.1246 9.77712C57.8586 10.9312 57.5323 12.0317 57.1503 13.0672C56.2132 15.6079 54.9461 17.8503 53.3454 19.3144C52.3762 20.2009 51.2395 20.8598 49.9087 21.1409L49.8686 21.1493C47.8104 21.5712 45.7526 21.0933 43.6375 20.2054C43.3887 20.1009 43.1391 19.9908 42.8886 19.8758C42.3876 19.6458 41.8831 19.3962 41.3743 19.1336C40.8655 18.871 40.3525 18.5952 39.8344 18.3128C39.4459 18.1009 39.0546 17.8853 38.6601 17.6687C38.1342 17.3798 37.6027 17.089 37.065 16.8027C36.9306 16.7312 36.7958 16.6599 36.6605 16.589C36.3901 16.4472 36.118 16.3069 35.8442 16.169C35.7074 16.1 35.57 16.0316 35.4323 15.9639C31.3268 13.9461 27.2734 13.0695 23.4309 13.8814C22.758 14.0235 22.0917 14.2175 21.4326 14.4662C16.9302 16.1648 12.9868 20.1712 10.3882 25.9348C10.276 26.1838 10.167 26.4377 10.0595 26.6923L10.0491 26.7171C7.57664 32.5674 6.71624 39.2602 7.36284 44.3734C7.36289 44.3738 7.363 44.3742 7.36306 44.3746C7.37278 44.4647 7.38486 44.5574 7.3951 44.6469C7.56121 46.0941 7.82589 47.6826 8.16201 49.3392L8.16178 49.3403L8.18361 49.4436C8.21791 49.6114 8.25206 49.779 8.28778 49.9481C9.87067 57.4369 12.829 66.1189 14.8269 69.4819C17.814 74.5076 23.6207 79.6425 30.4987 78.1894C31.2572 78.0292 32.0286 77.7888 32.8107 77.4593C37.3651 75.541 39.7823 71.0458 42.0504 66.2644C44.3187 61.4824 46.439 56.4144 50.3996 53.3311C51.2637 52.6583 52.2129 52.2405 53.2166 52.0284C57.1031 51.2068 61.8073 53.472 65.5391 55.9447C67.4051 57.1809 69.0279 58.4685 70.1842 59.447C70.7623 59.9363 71.2238 60.3483 71.5407 60.6379C71.8576 60.9275 72.0291 61.0941 72.0296 61.0946L72.0533 61.098L72.0632 61.0674L71.1032 40.7026L71.0851 40.6616C70.8191 40.453 70.553 40.2461 70.2868 40.0406L70.2654 40.0398L70.2559 40.0672L70.2657 46.1857L70.0153 46.0974L70.0052 39.8552L69.9867 39.8111C69.3349 39.3117 68.6817 38.8242 68.0259 38.3516L68.005 38.3517L67.9957 38.3788L68.0057 44.5676L67.7553 44.4793L67.7451 38.1792L67.7259 38.1345C66.9969 37.6153 66.2638 37.1191 65.5257 36.6464L65.5055 36.6477L65.4967 36.6744L65.5067 42.8517L65.2562 42.7634L65.2461 36.4992L65.2256 36.4537C64.4682 35.977 63.7038 35.5315 62.9318 35.1182L62.9126 35.121L62.9044 35.1471L62.9142 41.1915L62.6638 41.1032L62.6538 35.0035L62.6318 34.9571C61.842 34.545 61.0424 34.1729 60.2323 33.8423L60.2139 33.8474L60.2069 33.8743L60.596 44.9339L60.3459 44.8668L59.9553 33.7637L59.9313 33.7185C59.1241 33.4012 58.3046 33.1322 57.4725 32.9109L57.4548 32.9189L57.4495 32.9472L58.0345 39.3489L57.7868 39.3186L57.1977 32.872L57.1716 32.8297C57.1426 32.8224 57.1134 32.8132 57.0829 32.8057C56.397 32.6371 55.7071 32.516 55.0175 32.437L55.0007 32.4478L54.9972 32.4775L55.9196 38.7208L55.6764 38.7283L54.748 32.4443L54.72 32.4052C54.0087 32.3368 53.2985 32.314 52.594 32.3375L52.5783 32.3508L52.5764 32.381L53.7358 38.4151L53.4976 38.4523L52.3324 32.3875L52.3027 32.3514C51.5746 32.3887 50.8537 32.4742 50.1449 32.6065L50.1307 32.6213L50.1297 32.6508L51.4227 38.902L51.1864 38.9489L49.893 32.6957L49.8803 32.669L49.8614 32.6608C49.83 32.6673 49.7985 32.6737 49.7671 32.6804C49.118 32.8176 48.4801 32.9936 47.8577 33.2084L47.8452 33.2551L50.6496 44.2596L50.4205 44.3376L47.6176 33.3387L47.6037 33.3132L47.5848 33.3074C46.9766 33.5298 46.3834 33.7875 45.8103 34.0822L45.7997 34.1281L47.4233 40.4995L47.1942 40.5774L45.5824 34.2525L45.5676 34.226L45.5477 34.222C44.9275 34.5562 44.3319 34.9328 43.7654 35.35L43.7569 35.3946L45.3799 41.7635L45.1508 41.8414L43.5517 35.5665L43.5357 35.539L43.5148 35.5374C42.9153 35.9988 42.3516 36.5076 41.8285 37.0604L41.8224 37.1028L43.4003 43.2944L43.1712 43.3723L41.6334 37.338L41.6158 37.3094L41.594 37.3112C41.4795 37.4383 41.3667 37.5673 41.2564 37.6988C40.8464 38.187 40.456 38.7031 40.0818 39.2411L40.0778 39.281L41.6671 45.5176L41.438 45.5956L39.9064 39.5854L39.8874 39.5559L39.8651 39.5611C39.3809 40.28 38.9235 41.0342 38.4859 41.811L38.4832 41.8488L41.2757 52.8071L41.0466 52.885L38.3236 42.1995L38.3036 42.1695L38.2811 42.1772C37.8752 42.9138 37.4849 43.6675 37.1049 44.4278L37.1029 44.4644L38.686 50.6768L38.4569 50.7547L36.9511 44.8458L36.9306 44.8155L36.908 44.8247C36.5611 45.5263 36.2211 46.2311 35.884 46.9308C35.7814 47.1442 35.6785 47.3581 35.5754 47.5721L35.5735 47.6082L37.1544 53.8119L36.9253 53.8898L35.4234 47.9963L35.4029 47.9659L35.3802 47.9754C35.0115 48.7371 34.6373 49.4985 34.2514 50.2493L34.2492 50.2861L35.8223 56.459L35.5932 56.5369L34.0943 50.6554L34.0741 50.6252L34.0515 50.6337C33.6378 51.4254 33.2101 52.2031 32.7598 52.9523L32.7567 52.9908L34.3376 59.1943L34.1085 59.2722L32.5912 53.3181L32.5718 53.2884L32.5493 53.2947C32.1139 53.9998 31.6578 54.6782 31.1737 55.3175L31.1692 55.3582L33.9577 66.3009L33.7286 66.3788L30.9899 55.6319L30.9717 55.6029L30.9496 55.6063C30.5596 56.103 30.1534 56.5768 29.7244 57.0171C29.6069 57.138 29.4829 57.2502 29.36 57.3648L29.3531 57.4081L30.9096 63.5163L30.6805 63.5942L29.1572 57.6165L29.1407 57.5886L29.1195 57.5882C28.6012 58.0411 28.0432 58.4318 27.4555 58.7649L27.4454 58.8106L29.0603 65.1473L28.8312 65.2252L27.2294 58.9396L27.2146 58.9132L27.1948 58.9091C26.6536 59.1951 26.0872 59.4287 25.5027 59.6144L25.4895 59.6312L25.4899 59.6613L27.0612 65.8271L26.8321 65.905L25.2599 59.7356L25.228 59.704C24.9825 59.7746 24.7342 59.8368 24.4831 59.8899C24.1245 59.9657 23.7599 60.0215 23.3914 60.0613L23.3761 60.0768L23.3759 60.1087L24.947 66.2738L24.7179 66.3517L23.1302 60.1217L23.1011 60.0896C22.3848 60.1483 21.6538 60.1389 20.9162 60.0611L20.8984 60.0746L20.8975 60.1085L23.658 70.941L23.4289 71.0189L20.6354 60.057L20.6094 60.025C20.0114 59.9466 19.4104 59.8224 18.8101 59.6532L18.7911 59.663L18.7878 59.6958L19.9457 65.8406L19.707 65.8752L18.5244 59.5993L18.5002 59.5636C17.8108 59.351 17.124 59.0784 16.4465 58.7437C16.3573 58.6998 16.2683 58.6501 16.1784 58.6029L16.1567 58.6092L16.1523 58.644L17.311 64.7926L17.0723 64.8272L15.8727 58.4615L15.8525 58.4276C15.0331 57.9634 14.2276 57.378 13.4364 56.6755L13.4112 56.6756L13.405 56.7129L14.5486 62.7817L14.31 62.8164L13.0973 56.3812L13.0824 56.3512C12.335 55.6503 11.6007 54.8445 10.8804 53.9312L10.8526 53.9247L10.8446 53.9639L11.968 59.9254L11.7294 59.9601L10.5077 53.4566L10.4972 53.4316C9.7886 52.4896 9.0933 51.448 8.41287 50.3004L8.2398 49.4813C10.7871 53.939 13.544 56.9205 16.4664 58.3624C19.1085 59.6623 21.8887 60.0216 24.3953 59.492C26.3468 59.0797 28.1325 58.1286 29.558 56.662C32.1208 54.0332 33.9267 50.2732 35.6759 46.6438C37.2539 43.3618 38.887 39.9699 41.08 37.3542C43.273 34.7396 46.3314 32.9886 49.6863 32.2798C52.0653 31.7771 54.5934 31.7983 57.0676 32.4061C62.0721 33.6323 66.5691 36.7175 71.048 40.2214L71.0702 40.2217L71.079 40.192L70.9745 37.974L70.9589 37.9349Z" fill="#81C7EE"/>
<path d="M71.0615 40.1513L71.0609 40.1508C66.581 36.6462 62.0776 33.5559 57.0648 32.3277C54.5856 31.7188 52.0534 31.6976 49.6703 32.2011C46.3097 32.9113 43.2457 34.6646 41.0461 37.2868C38.8481 39.9086 37.2133 43.3053 35.6352 46.5871C33.886 50.2168 32.0823 53.9705 29.5262 56.5924C28.1062 58.0534 26.3257 59.0021 24.3793 59.4133C21.8792 59.9416 19.1056 59.583 16.4713 58.2868C13.5335 56.8371 10.7628 53.8286 8.20186 49.3126L8.17166 49.2986L8.16227 49.3407L8.36953 50.3216L8.37683 50.3407C9.05642 51.4875 9.75104 52.5285 10.4589 53.471L11.6906 60.0071L11.7028 60.0342L11.7215 60.0434L12.0072 60.0019L12.0216 59.9878L12.0232 59.9588L10.9111 54.0571C11.6126 54.9405 12.3273 55.7241 13.0546 56.4074L14.2712 62.8635L14.2834 62.8906L14.3022 62.8998L14.5878 62.8582L14.6022 62.8442L14.6038 62.8151L13.4671 56.7828C14.2415 57.4656 15.0295 58.0377 15.831 58.4933L17.0335 64.8743L17.0456 64.9014L17.0644 64.9106L17.35 64.8691L17.3645 64.8551L17.3661 64.826L16.2114 58.6985C16.2882 58.7395 16.365 58.7818 16.4429 58.8201C17.1162 59.1528 17.7987 59.4238 18.4836 59.6362L19.6682 65.9223L19.6804 65.9494L19.6992 65.9586L19.9848 65.9171L19.9992 65.9031L20.0008 65.874L18.8449 59.74C19.4299 59.9033 20.0156 60.0246 20.5983 60.1018L23.3944 71.0739L23.4081 71.0993L23.4269 71.1054L23.7011 71.0121L23.7142 70.9953L23.7137 70.9654L20.956 60.1438C21.6777 60.218 22.3929 60.2271 23.0943 60.1709L24.6834 66.4067L24.697 66.4321L24.7159 66.4382L24.9901 66.3449L25.0031 66.3281L25.0027 66.2982L23.4328 60.1379C23.7929 60.0982 24.1495 60.0436 24.5004 59.9695C24.7447 59.9179 24.9861 59.8569 25.2249 59.7887L26.7976 65.96L26.8112 65.9854L26.8301 65.9914L27.1043 65.8982L27.1173 65.8814L27.1169 65.8515L25.5456 59.6856C26.1149 59.5033 26.667 59.2755 27.1957 58.9979L28.7966 65.2802L28.8103 65.3056L28.8291 65.3117L29.1033 65.2184L29.1164 65.2016L29.1159 65.1717L27.4999 58.8301C28.0729 58.5038 28.6177 58.1222 29.1253 57.6816L30.646 63.6492L30.6597 63.6746L30.6785 63.6806L30.9528 63.5874L30.9658 63.5705L30.9653 63.5406L29.4063 57.4228C29.5242 57.3131 29.6436 57.2049 29.7575 57.0877C30.1785 56.6557 30.5769 56.1908 30.96 55.7048L33.6941 66.4338L33.7077 66.4592L33.7266 66.4652L34.0008 66.372L34.0138 66.3551L34.0134 66.3252L31.2213 55.3688C31.6929 54.7447 32.1376 54.0835 32.5628 53.3973L34.074 59.3273L34.0876 59.3527L34.1065 59.3587L34.3807 59.2655L34.3937 59.2486L34.3932 59.2187L32.8082 52.9991C33.2468 52.2683 33.6637 51.5108 34.0673 50.7401L35.5586 56.592L35.5722 56.6175L35.5911 56.6235L35.8653 56.5303L35.8783 56.5134L35.8779 56.4835L34.3004 50.2932C34.6752 49.5635 35.0389 48.824 35.3972 48.0842L36.8908 53.945L36.9044 53.9704L36.9233 53.9764L37.1975 53.8832L37.2105 53.8664L37.2101 53.8365L35.6245 47.6148C35.7253 47.4058 35.8258 47.1969 35.926 46.9885C36.2549 46.3059 36.5869 45.6183 36.9249 44.9339L38.4224 50.8099L38.436 50.8354L38.4549 50.8414L38.7291 50.7482L38.7421 50.7313L38.7416 50.7014L37.1541 44.4716C37.5235 43.7328 37.9029 43.0008 38.2966 42.2846L41.012 52.9402L41.0256 52.9656L41.0445 52.9716L41.3187 52.8784L41.3317 52.8616L41.3313 52.8317L38.5346 41.8574C38.9614 41.1007 39.4073 40.3665 39.878 39.665L41.4034 45.6508L41.417 45.6762L41.4359 45.6823L41.7101 45.589L41.7231 45.5722L41.7227 45.5423L40.1299 39.292C40.5002 38.7604 40.8861 38.2501 41.2914 37.7675C41.3931 37.6461 41.4974 37.5274 41.6029 37.4098L43.1364 43.4275L43.1501 43.453L43.169 43.459L43.4432 43.3657L43.4562 43.3489L43.4558 43.319L41.8753 37.1172C42.386 36.5789 42.9357 36.0826 43.5195 35.6313L45.1161 41.8967L45.1297 41.9221L45.1486 41.9281L45.4228 41.8349L45.4358 41.8181L45.4354 41.7882L43.8108 35.4132C44.3638 35.0071 44.9447 34.6399 45.549 34.3128L47.1595 40.6327L47.1731 40.6581L47.192 40.6641L47.4662 40.5709L47.4792 40.554L47.4788 40.5241L45.8545 34.1502C46.4132 33.864 46.9909 33.6128 47.5832 33.3953L50.3857 44.393L50.3994 44.4184L50.4182 44.4244L50.6924 44.3311L50.7054 44.3143L50.705 44.2844L47.9008 33.2805C48.5149 33.0697 49.144 32.8957 49.7842 32.7605C49.8078 32.7555 49.8315 32.7506 49.8551 32.7457L51.1485 38.9987L51.1799 39.0337L51.4627 38.9776L51.4768 38.9628L51.4778 38.9334L50.185 32.6832C50.8778 32.555 51.582 32.4714 52.2932 32.434L53.4587 38.5004L53.471 38.5273L53.4898 38.5364L53.7749 38.4919L53.7892 38.4777L53.7907 38.4485L52.6321 32.4182C53.3194 32.3964 54.0122 32.4186 54.706 32.4844L55.6347 38.7704L55.6459 38.7984L55.6646 38.8095L55.9557 38.8005L55.9708 38.7883L55.9737 38.76L55.052 32.5213C55.7315 32.6001 56.4111 32.7193 57.0867 32.8853C57.1082 32.8906 57.1303 32.897 57.1525 32.9031L57.7419 39.3533L57.7699 39.396L58.0664 39.4321L58.0826 39.4226L58.0872 39.3954L57.5026 32.9984C58.3163 33.2159 59.118 33.4791 59.9076 33.7884L60.2983 44.8939L60.3243 44.9398L60.6236 45.02L60.6405 45.0132L60.6468 44.9873L60.2579 33.9321C61.05 34.2564 61.8321 34.6202 62.6048 35.0226L62.6147 41.1257L62.622 41.1557L62.6394 41.1732L62.9392 41.2789L62.9566 41.2737L62.9638 41.2487L62.954 35.2097C63.7088 35.6146 64.4563 36.0503 65.1971 36.5159L65.2073 42.7858L65.2146 42.8158L65.232 42.8333L65.5318 42.939L65.5492 42.9338L65.5563 42.9089L65.5463 36.7399C66.2675 37.2024 66.9838 37.6872 67.6961 38.1941L67.7064 44.5017L67.7136 44.5317L67.7311 44.5492L68.0309 44.6549L68.0483 44.6497L68.0555 44.6247L68.0457 38.4459C68.6846 38.9069 69.3212 39.3819 69.9565 39.8684L69.9667 46.1193L69.9739 46.1494L69.9914 46.1669L70.2912 46.2726L70.3086 46.2674L70.3158 46.2425L70.3059 40.1359C70.5616 40.3334 70.8172 40.532 71.0728 40.7325L71.0876 40.7368L71.1038 40.7031L71.0798 40.1924L71.0615 40.1513Z" fill="white"/>
<path d="M70.545 21.9338L70.5592 21.913L71.4497 16.8792C71.6037 16.284 71.5934 15.5956 71.462 14.9734C71.3252 14.3262 71.0568 13.7489 70.7043 13.4255L60.7507 1.96615L60.7478 1.96319C60.5311 1.7656 60.2995 1.68886 60.0915 1.73287C59.9574 1.76116 59.833 1.83964 59.7287 1.96826L59.7227 1.98195L58.6363 7.17463L58.628 7.23824L59.9476 8.86741L70.5233 21.9244L70.545 21.9338Z" fill="#C2C2C2"/>
<path d="M74.2458 40.9832L70.9585 37.9349L70.9352 37.9321L70.9255 37.9626L71.0301 40.1806L71.0541 40.6913L72.0141 61.0561L72.0293 61.0945L74.7379 63.8235C74.9771 64.0646 75.2237 64.1475 75.4392 64.1019C75.8363 64.0183 76.1295 63.498 76.0842 62.7327L74.8863 42.5144C74.8784 42.3813 74.8602 42.2488 74.8329 42.1194C74.7357 41.6597 74.523 41.2402 74.2458 40.9832Z" fill="#C2C2C2"/>
<path d="M60.8974 3.06316L60.8944 3.0599C60.6244 2.81043 60.4427 2.67446 60.268 2.71078C60.151 2.73568 60.0421 2.83752 59.9143 3.02406L59.9092 3.03727L59.5436 4.97581L59.5563 5.02551L68.9444 15.8022L68.9634 15.811L68.9776 15.7963L69.7471 13.5704L69.7363 13.5152L60.8974 3.06316Z" fill="#E9E9E9"/>
<path d="M73.4535 41.8717L72.4165 41.0301L72.394 41.0295L72.3851 41.0597L73.3162 58.1403L73.3274 58.1736L75.1924 60.7337L75.2185 60.7436L75.2303 60.7112L74.3057 43.8073C74.2966 43.6411 74.2742 43.4756 74.2401 43.3144C74.1133 42.7142 73.8244 42.1727 73.4535 41.8717Z" fill="#E9E9E9"/>
</svg>
