<svg width="87" height="119" viewBox="0 0 87 119" fill="none" xmlns="http://www.w3.org/2000/svg">
<path opacity="0.4" d="M73.7874 81.5022C72.0797 83.215 68.5758 84.748 70.6421 87.3625C70.8998 87.6731 71.074 87.949 71.1816 88.1989L77.264 80.267L79.2403 76.6208L79.7444 75.5447C77.2718 77.1034 75.9537 79.496 73.7874 81.5022Z" fill="#67AFDB"/>
<path opacity="0.4" d="M80.4364 66.1765C79.2682 67.2583 77.2914 68.0698 76.6624 69.5119C78.0938 69.8314 79.5561 69.5557 81.0315 69.4413C80.9816 69.207 80.8624 68.4788 81.1657 67.9026C81.531 67.2077 82.4353 65.6628 82.4353 65.0452C82.4353 64.851 82.3943 64.5848 82.328 64.2759C81.761 64.921 81.111 65.5319 80.4364 66.1765Z" fill="#67AFDB"/>
<path opacity="0.4" d="M74.8654 75.1017C76.2738 75.3508 78.5965 74.3021 80.0071 74.984L81.281 72.2659C81.281 72.2659 81.4646 72.2197 81.3387 71.1584C80.7828 71.3586 80.2624 71.552 79.8971 71.7657C78.3695 72.7577 75.9435 73.7491 74.8654 75.1017Z" fill="#67AFDB"/>
<path d="M76.4628 37.9141C76.4628 37.9141 80.2532 45.5214 80.4905 47.7796C80.7277 50.0381 79.3053 52.4154 80.4905 56.4568C81.6754 60.4977 82.505 64.6585 79.5428 72.1468C76.5808 79.6351 71.9605 91.2833 63.3125 94.1364C63.3125 94.1364 62.7204 108.637 63.9048 115.888C63.9048 115.888 44.9501 121.117 20.9014 115.888C20.9014 115.888 24.0998 99.0089 23.9815 84.0322C23.8628 69.0556 76.4628 37.9141 76.4628 37.9141Z" fill="#FFD3BD"/>
<path d="M64.4735 87.5408C60.906 89.4361 56.7087 90.9098 55.8692 95.3319C55.0301 100.596 57.9675 106.702 59.8564 111.335C60.5768 112.997 61.2948 114.66 61.9812 116.339C63.2328 116.073 63.9052 115.887 63.9052 115.887C62.7205 108.636 63.3126 94.1359 63.3126 94.1359C71.9606 91.2828 76.5809 79.6346 79.5429 72.1463C81.195 67.9693 81.6668 64.8287 81.556 62.1658C78.8049 72.821 75.1504 82.2783 64.4735 87.5408Z" fill="#F7BEA1"/>
<path d="M59.9594 92.5759C59.3244 92.639 58.6636 92.8221 58.0004 92.9879C57.9324 92.3622 57.4935 91.7966 56.7489 91.8613C55.2215 91.9946 52.1083 92.3879 51.7581 93.9158C51.7489 93.9188 51.7392 93.922 51.7292 93.9253C51.9155 93.1327 51.3496 92.3282 50.4731 92.3011C49.0914 92.2584 47.7452 92.6081 46.5077 93.2076C46.3896 93.2644 46.2761 93.3358 46.1661 93.4148C46.1464 93.3937 46.1294 93.3731 46.1084 93.352C45.2138 92.4545 43.7304 92.8838 42.7189 93.2763C41.5029 93.7483 39.1878 96.3022 38.2811 94.3137C38.0611 93.8319 37.4345 93.7781 37.0193 93.9818C34.1544 95.3882 31.5602 95.2175 28.5651 94.2415C27.7345 93.971 26.9725 93.2763 26.082 93.1997C25.8515 93.18 23.9777 93.5557 23.9815 93.5698C23.9389 93.4026 23.6987 93.4456 23.6914 93.6093C23.6682 94.1257 23.8459 94.2461 24.3681 94.2369C25.0308 94.2258 25.3271 93.5958 26.0685 94.2915C26.6568 94.8436 27.2683 95.2413 27.9952 95.5984C30.9293 97.0391 34.0226 96.9718 36.9732 95.953C37.8233 97.371 39.7111 98.0562 41.2907 97.1368C41.4228 97.0599 41.5504 96.9791 41.6763 96.8968C41.8496 97.2896 42.2284 97.5912 42.8116 97.6104C44.1936 97.6562 45.9116 97.4952 46.9639 96.4938C47.1974 96.2717 47.344 96.061 47.5001 95.8702C47.6112 96.1059 47.7846 96.3033 48.0032 96.401C49.8374 97.219 51.8209 96.5143 53.6713 96.0626C53.939 95.9971 54.177 95.8218 54.3539 95.594C54.4631 95.6619 54.586 95.7125 54.7268 95.7377C56.613 96.0731 58.1222 95.2973 59.9591 95.0817C61.5309 94.8975 61.5722 92.4166 59.9594 92.5759Z" fill="#F7BEA1"/>
<path d="M34.4632 98.9118C36.5618 97.0166 45.3759 93.0157 44.1168 89.6465C43.2775 87.962 39.7098 86.2775 38.4504 85.2247C35.7222 83.1193 33.2038 80.5922 31.525 77.4339C30.7301 75.9231 30.2314 74.3872 29.9604 72.8398C26.2826 76.9936 23.9564 80.873 23.9815 84.032C24.0999 99.0086 20.9015 115.887 20.9015 115.887C20.9692 115.902 21.0366 115.916 21.1042 115.93C24.7712 109.69 28.9874 103.781 34.4632 98.9118Z" fill="#F7BEA1"/>
<path opacity="0.5" d="M66.7854 63.4956C58.7987 64.4099 54.9174 76.5226 55.8047 80.3414C56.6917 84.1602 66.6336 82.064 67.8248 79.5348C69.0156 77.0052 70.344 63.0882 66.7854 63.4956Z" fill="#F7BEA1"/>
<path d="M32.773 97.1916C34.1941 97.1662 36.1478 96.6692 38.2598 95.8821C40.4009 95.0842 42.8049 93.9502 45.1567 92.5709C49.8008 89.8474 54.482 86.0266 56.3375 81.7529L56.3375 81.7528C56.5841 81.1846 56.8467 80.5701 57.1238 79.9217C58.4163 76.8969 60.0247 73.1325 61.8092 69.8743C62.8925 67.8964 64.0088 66.1661 65.1172 64.928C66.2598 63.6519 67.2162 63.0987 67.9582 63.0562C68.8837 63.003 69.7903 63.289 70.712 63.7947C71.6375 64.3025 72.4968 64.9841 73.3559 65.6654L73.3771 65.6822L73.4409 65.7328C74.2216 66.3522 75.1104 67.0575 75.9571 67.3788C76.4256 67.5565 76.9964 67.6655 77.5969 67.5003C78.2119 67.3312 78.6799 66.9244 79.0279 66.4149L79.0279 66.4148C79.6729 65.4704 79.9054 64.3589 79.9597 63.2196C80.0137 62.0856 79.8943 60.8114 79.7429 59.4774C79.7068 59.1593 79.6687 58.8353 79.6298 58.5055C79.337 56.0219 79.0049 53.2043 79.2253 50.0202L78.0791 49.9409L79.2253 50.0202C79.4839 46.2817 79.7949 42.653 80.3109 39.8503C80.5695 38.4453 80.8699 37.3046 81.2152 36.4816C81.5841 35.6023 81.9 35.338 82.0247 35.2845C82.5629 35.054 83.0066 34.6164 83.3506 34.1666C83.7099 33.6967 84.0337 33.1168 84.3018 32.472C84.8376 31.1835 85.19 29.5414 85.1061 27.8019C85.0218 26.0531 84.4944 24.1855 83.2472 22.4979C82.1225 20.976 80.4532 19.6556 78.1172 18.6963C78.1177 18.4957 78.1132 18.2661 78.1002 18.0117C78.0523 17.0694 77.8877 15.7727 77.4186 14.3485C76.4702 11.4689 74.2859 8.11395 69.4728 6.14754C64.9115 4.28401 57.1413 2.09124 48.5784 1.84711C40.0663 1.60443 30.6603 3.28638 22.874 9.26062C22.8615 9.26534 22.8484 9.27032 22.8347 9.27556C22.7002 9.32685 22.506 9.4027 22.2596 9.50344C21.7671 9.70486 21.0656 10.0061 20.217 10.4101C18.522 11.2171 16.2295 12.4389 13.841 14.1C9.09439 17.4011 3.80445 22.5532 2.28352 29.7764C-0.625102 43.59 2.42037 59.2542 12.1149 69.9868C12.1297 70.0381 12.1467 70.0963 12.1658 70.1611C12.2502 70.4464 12.3771 70.8612 12.5501 71.3884C12.8961 72.4425 13.4267 73.947 14.1693 75.7641C15.6535 79.3958 17.9902 84.29 21.4025 89.3381C23.1534 91.9283 24.6234 93.9415 26.3376 95.2668C28.1282 96.6511 30.1152 97.2392 32.773 97.1916ZM32.773 97.1916L32.7525 96.0428L32.7731 97.1916C32.773 97.1916 32.773 97.1916 32.773 97.1916Z" fill="#030D20" stroke="white" stroke-width="2.29786"/>
<path d="M76.9334 19.4744C76.9334 19.4744 77.9493 10.8518 69.0384 7.21126C66.1128 6.01641 61.8174 4.67629 56.8334 3.82959C58.7414 4.41173 60.5958 5.14428 62.3752 6.0532C66.5725 8.15886 69.7202 11.5278 69.0907 16.3708C68.6709 19.1081 65.5229 22.8982 65.9427 25.6355C66.5725 30.8997 76.8557 25.6355 79.1641 30.0573C80.4235 32.3734 77.0652 37.006 76.2259 39.1119C74.5471 43.7444 73.7072 48.3766 74.7565 53.2193C75.5085 57.3682 77.7732 61.8546 77.3337 66.3768C77.6031 66.2907 77.8522 66.0995 78.0792 65.767C79.9889 62.9705 77.5621 57.4123 78.0792 49.941C78.5961 42.4697 79.3361 35.1868 81.5723 34.2286C83.8084 33.2705 87.246 23.1149 76.9334 19.4744Z" fill="#1F2A47"/>
<path d="M72.1817 10.5245C71.7144 14.0769 70.6069 17.1983 67.601 19.357C64.7321 21.4164 61.284 22.6537 58.0239 23.9235C52.4586 26.0911 47.3217 28.7651 42.7876 32.713C38.5715 36.3844 35.3313 41.1226 33.8724 46.5556C32.1798 52.8599 33.7444 59.2742 36.747 64.9136C36.8058 65.0234 36.9552 64.9271 36.9096 64.8184C35.4542 61.3675 34.0833 58.0045 33.6783 54.2471C33.3257 50.9755 33.953 47.6712 35.0984 44.6141C37.2663 38.8271 41.8809 34.1172 46.8159 30.5916C51.9555 26.9192 57.8942 24.9988 63.5274 22.2818C66.0124 21.0834 68.4985 19.6578 70.1989 17.4334C71.6945 15.4779 72.1396 12.9091 72.3963 10.5243C72.4111 10.385 72.1989 10.3898 72.1817 10.5245Z" fill="#030D20"/>
<path d="M39.7194 64.8662C40.0159 59.3834 40.9801 54.2908 43.6365 49.4251C46.3105 44.5275 50.4881 40.8888 55.2395 38.0993C62.9725 33.5593 74.7795 31.6268 77.7339 21.8321C77.7973 21.6222 77.5012 21.5088 77.3907 21.6868C76.0491 23.8425 75.0631 25.9798 73.1953 27.7769C71.229 29.6691 68.5593 30.7041 66.135 31.857C61.203 34.2015 56.1578 36.3004 51.6739 39.4713C43.7983 45.0404 38.5069 55.0788 39.4775 64.8662C39.4929 65.0198 39.7107 65.0244 39.7194 64.8662Z" fill="#030D20"/>
<path d="M82.6526 27.7509C79.4245 37.1607 69.9709 41.8402 62.0921 46.7554C54.9514 51.2105 46.4051 55.9812 44.6076 64.9728C44.5771 65.1253 44.792 65.1865 44.8402 65.0369C47.9154 55.6028 56.8123 50.8645 64.7364 45.9991C72.062 41.5007 80.1918 36.5647 82.7038 27.765C82.7135 27.7314 82.6634 27.7184 82.6526 27.7509Z" fill="#030D20"/>
<path d="M75.6004 44.2935C75.0103 47.1001 72.7 48.8819 70.5779 50.5718C68.2948 52.3899 65.9603 54.1342 63.4833 55.6785C61.0544 57.1929 58.4532 58.2433 55.7587 59.1744C53.5504 59.9375 51.1557 60.7555 49.3288 62.2598C49.1934 62.3713 49.3657 62.5671 49.5078 62.4925C52.1869 61.0869 54.903 60.0662 57.7352 59.0185C60.4734 58.0055 62.9821 56.5804 65.3938 54.9417C67.6394 53.4157 69.7502 51.6898 71.8502 49.9721C73.6261 48.5197 75.2459 46.6229 75.6263 44.3008C75.6293 44.2838 75.6042 44.2762 75.6004 44.2935Z" fill="#030D20"/>
<path d="M45.7982 6.71356C35.8234 11.352 28.6946 20.2202 24.5408 30.287C22.141 36.1033 20.351 42.2929 20.3648 48.6334C20.3796 55.3789 23.8171 60.9441 27.6968 66.192C27.8082 66.3422 28.0611 66.2023 27.9519 66.0422C24.2617 60.6328 21.0693 55.3881 20.9204 48.6334C20.7802 42.2599 22.8827 35.8163 25.3695 30.0255C29.5887 20.2018 36.3095 11.8287 45.8656 6.82988C45.9435 6.78958 45.8759 6.67759 45.7982 6.71356Z" fill="#030D20"/>
<path d="M25.5418 10.7355C18.079 18.4687 13.2255 27.8457 11.5725 38.5082C10.7251 43.9725 10.7456 49.6538 12.528 54.9328C14.2214 59.9486 18.0973 63.2505 22.3545 66.0941C22.5006 66.1918 22.6271 65.9618 22.4901 65.8615C18.2116 62.7319 14.6132 59.3219 12.9265 54.1454C11.1966 48.836 11.5892 42.9013 12.4673 37.4716C14.0836 27.4772 18.914 18.3131 25.6747 10.8686C25.7562 10.7794 25.6267 10.6476 25.5418 10.7355Z" fill="#030D20"/>
<path d="M5.08077 37.7647C4.72812 44.3647 4.33637 51.3977 6.96777 57.6279C9.20122 62.9164 13.7226 66.0627 18.9201 68.0666C19.0765 68.127 19.1849 67.8673 19.0339 67.7959C13.7776 65.3072 9.48027 62.3532 7.16728 56.8074C4.67986 50.8434 4.93868 44.0939 5.13415 37.7647C5.1355 37.7298 5.08265 37.7304 5.08077 37.7647Z" fill="#030D20"/>
<path d="M74.0762 60.2798C74.0489 62.1853 74.349 64.6651 75.9529 65.9154C76.0594 65.9976 76.2064 65.8634 76.1052 65.7628C74.6863 64.3586 74.187 62.2145 74.1031 60.2801C74.1026 60.2628 74.0767 60.2622 74.0762 60.2798Z" fill="#030D20"/>
<path d="M75.8637 58.0558C75.645 60.2507 75.0316 62.6079 75.7612 64.7631C75.8162 64.9265 76.0613 64.8616 76.02 64.6911C75.4784 62.4556 75.7917 60.3148 75.9173 58.0558C75.9192 58.0206 75.8672 58.0217 75.8637 58.0558Z" fill="#030D20"/>
<path d="M50.2241 70.703C50.116 75.6942 49.122 80.5929 47.3649 85.26C47.3034 85.4234 47.5617 85.4913 47.6237 85.332C49.4506 80.6264 50.3215 75.7494 50.3047 70.7033C50.3047 70.651 50.2252 70.651 50.2241 70.703Z" fill="#030D20"/>
<path d="M42.4039 86.7069C43.5071 84.3118 43.9612 81.7868 44.237 79.1813C44.2462 79.0944 44.113 79.0966 44.1027 79.1813C43.7886 81.74 43.3634 84.2874 42.3346 86.6658C42.3141 86.7128 42.3821 86.7545 42.4039 86.7069Z" fill="#030D20"/>
<path d="M38.5136 93.0928C40.519 89.5615 40.272 85.6091 40.2203 81.6826C40.2192 81.596 40.0868 81.596 40.086 81.6826C40.0604 85.5095 40.2569 89.5648 38.4675 93.0657C38.4516 93.0963 38.4964 93.1231 38.5136 93.0928Z" fill="#030D20"/>
<path d="M23.834 86.5397C22.2843 82.4331 20.2476 78.5115 19.4401 74.1592C19.4242 74.0732 19.297 74.1105 19.3107 74.1952C20.0212 78.5954 22.1589 82.4574 23.7822 86.5541C23.7946 86.5857 23.8461 86.5725 23.834 86.5397Z" fill="#030D20"/>
<path d="M30.3412 92.7876C28.3822 88.2957 26.5772 83.7508 25.8376 78.8781C25.8193 78.7575 25.64 78.81 25.6565 78.9282C26.3464 83.8769 28.1943 88.326 30.2951 92.8146C30.3097 92.8465 30.355 92.8187 30.3412 92.7876Z" fill="#030D20"/>
<path d="M32.7132 86.9643C32.6784 84.903 32.2902 82.8785 32.0065 80.842C32.0017 80.8077 31.9502 80.8226 31.9548 80.8564C32.229 82.8879 32.6069 84.9089 32.6328 86.9643C32.6334 87.0165 32.714 87.0165 32.7132 86.9643Z" fill="#030D20"/>
<path d="M58.5295 7.16142C55.0038 13.9621 49.0925 18.702 42.6068 22.5094C39.2933 24.4544 35.8479 26.1684 32.5075 28.0674C30.7461 29.0685 29.0589 30.1995 27.2805 31.1666C25.7524 31.9976 24.3539 32.9233 23.249 34.2859C23.087 34.4861 23.369 34.7739 23.534 34.5718C24.7456 33.0894 26.3309 32.1602 27.992 31.2656C29.8119 30.2856 31.5468 29.1243 33.3513 28.1082C36.8371 26.1454 40.3987 24.3062 43.819 22.2284C49.9464 18.5059 55.4165 13.7503 58.6214 7.21553C58.6524 7.15412 58.5615 7.09921 58.5295 7.16142Z" fill="#030D20"/>
<path d="M32.3645 75.7494C35.0929 71.3276 41.1786 69.6434 46.0057 68.3798C47.055 68.1691 56.7087 66.4846 56.7087 64.8004C56.4989 60.7995 32.994 63.1157 30.0561 63.5369C21.0319 65.0109 14.736 64.1685 7.8105 57.4306C6.44223 56.124 5.27347 54.7801 4.28076 53.4043C6.0184 59.3169 8.9577 64.8432 13.1472 69.4143C13.1472 69.4143 15.6395 78.761 22.3544 88.6944C25.6673 93.5956 27.6139 95.85 31.8962 96.0323C31.8921 94.7609 31.8433 93.4771 31.7349 92.1735C31.3151 87.1203 29.4265 80.5926 32.3645 75.7494Z" fill="#030D20"/>
<path d="M70.2839 61.3574C70.2839 61.3574 63.7151 65.2642 63.0098 69.3313C62.305 73.3982 62.8062 76.0449 66.6466 77.299L70.2839 61.3574Z" fill="#FFD3BD"/>
<path d="M67.9128 62.7249C67.9128 62.7249 67.0374 63.4763 65.9409 64.7629C65.6667 65.0843 65.3884 65.4454 65.1029 65.8314C64.8177 66.2177 64.5492 66.6454 64.2841 67.0906C64.0223 67.5373 63.7891 68.0185 63.5893 68.5179C63.3844 69.0183 63.2262 69.529 63.117 70.0749C63.0094 70.6049 62.9261 71.1451 62.9188 71.6769C62.9129 72.2068 62.9417 72.7292 63.0474 73.2199C63.248 74.2067 63.6969 75.058 64.2097 75.7002C64.7231 76.3432 65.2768 76.7852 65.681 77.0682C66.087 77.3517 66.3415 77.4888 66.3415 77.4888C66.3415 77.4888 66.2733 77.468 66.1444 77.428C66.0166 77.3855 65.8274 77.3252 65.5958 77.221C65.1347 77.0173 64.4769 76.6676 63.8387 76.0389C63.1965 75.4248 62.5888 74.5051 62.3055 73.3974C62.004 72.2929 62.0329 71.0561 62.2871 69.8875C62.4122 69.3153 62.6012 68.7318 62.8323 68.1976C63.0682 67.6601 63.3529 67.1599 63.6532 66.6973C63.9525 66.2328 64.2887 65.8203 64.6149 65.4394C64.9409 65.0583 65.2784 64.7264 65.5958 64.4302C66.2334 63.838 66.8179 63.4117 67.2364 63.1333C67.6567 62.8552 67.9128 62.7249 67.9128 62.7249Z" fill="#F7BEA1"/>
<path d="M68.1211 61.7876C65.9481 64.2024 66.2956 68.7319 65.8742 71.7459C65.5442 74.1018 64.2139 78.3156 66.6256 79.9581C66.8081 80.0826 67.0573 79.917 67.0559 79.7103C67.0492 78.4722 66.8116 77.3085 66.9076 76.0555C67.0489 74.2 67.3436 72.3559 67.5932 70.5132C67.9774 67.6772 68.2751 64.7892 68.4805 61.9366C68.4937 61.7543 68.2406 61.6548 68.1211 61.7876Z" fill="#F7BEA1"/>
<path d="M69.6268 72.7592C70.2758 70.9146 72.1269 67.5269 72.8414 64.0869C73.5556 60.6465 73.8417 58.1383 71.6273 58.0664C69.4128 57.9944 67.6989 62.1522 67.3413 66.8101C66.9841 71.4686 66.5554 75.1235 66.4837 75.6253C66.4123 76.1273 65.8407 79.7103 66.9124 80.4988C67.9841 81.2876 69.4834 80.2123 69.341 78.5644C69.1987 76.9159 68.7137 75.3534 69.6268 72.7592Z" fill="#FFD3BD"/>
<path d="M72.2698 59.6577C70.7586 59.7938 70.1318 61.4561 69.7762 62.7434C69.0466 65.3853 68.6815 68.099 68.4462 70.8234C68.4276 71.039 68.7368 71.0528 68.8007 70.8718C69.5562 68.7434 70.2113 66.654 70.6864 64.445C71.0336 62.8303 71.1981 61.2992 72.4609 60.1219C72.6259 59.968 72.5076 59.6364 72.2698 59.6577Z" fill="#FFE6DC"/>
<path d="M67.8537 72.3954C67.662 72.7241 67.5846 73.1131 67.4927 73.4777C67.3797 73.9289 67.2387 74.4091 67.4067 74.8654C67.5436 75.2363 67.9874 75.2101 68.1325 74.8654C68.318 74.4234 68.3115 73.9124 68.3379 73.4409C68.3589 73.0679 68.332 72.6667 68.0907 72.3648C68.0281 72.2877 67.899 72.3183 67.8537 72.3954Z" fill="#FFE6DC"/>
<path opacity="0.5" d="M71.9816 58.105C72.451 59.7562 72.7157 61.4266 72.4262 63.1665C72.1576 64.8526 71.4852 66.4719 70.8805 68.0227C69.6702 70.9232 68.3254 73.2166 68.124 76.4541C68.0442 77.8934 68.1348 79.2374 68.4138 80.5575C68.9927 80.2163 69.42 79.4792 69.341 78.5646C69.1987 76.9161 68.7136 75.3539 69.6268 72.7594C70.2758 70.9148 72.1269 67.5272 72.8414 64.0871C73.5146 60.8439 73.8055 58.4312 71.9816 58.105Z" fill="#FFE6DC"/>
</svg>
